solid OpenSCAD_Model
  facet normal -0.951057 0.309017 0
    outer loop
      vertex 24.4271 -1.76336 5
      vertex 25 0 8
      vertex 25 0 5
    endloop
  endfacet
  facet normal -0.951057 0.309017 0
    outer loop
      vertex 25 0 8
      vertex 24.4271 -1.76336 5
      vertex 24.4271 -1.76336 8
    endloop
  endfacet
  facet normal -0.587785 -0.809017 0
    outer loop
      vertex 22.9271 2.85317 5
      vertex 24.4271 1.76336 8
      vertex 22.9271 2.85317 8
    endloop
  endfacet
  facet normal -0.587785 -0.809017 -0
    outer loop
      vertex 24.4271 1.76336 8
      vertex 22.9271 2.85317 5
      vertex 24.4271 1.76336 5
    endloop
  endfacet
  facet normal -0.951057 -0.309017 0
    outer loop
      vertex 25 0 5
      vertex 24.4271 1.76336 8
      vertex 24.4271 1.76336 5
    endloop
  endfacet
  facet normal -0.951057 -0.309017 0
    outer loop
      vertex 24.4271 1.76336 8
      vertex 25 0 5
      vertex 25 0 8
    endloop
  endfacet
  facet normal 0.587785 -0.809017 0
    outer loop
      vertex 19.5729 1.76336 5
      vertex 21.0729 2.85317 8
      vertex 19.5729 1.76336 8
    endloop
  endfacet
  facet normal 0.587785 -0.809017 0
    outer loop
      vertex 21.0729 2.85317 8
      vertex 19.5729 1.76336 5
      vertex 21.0729 2.85317 5
    endloop
  endfacet
  facet normal 0.587785 0.809017 -0
    outer loop
      vertex 21.0729 -2.85317 5
      vertex 19.5729 -1.76336 8
      vertex 21.0729 -2.85317 8
    endloop
  endfacet
  facet normal 0.587785 0.809017 0
    outer loop
      vertex 19.5729 -1.76336 8
      vertex 21.0729 -2.85317 5
      vertex 19.5729 -1.76336 5
    endloop
  endfacet
  facet normal -0.587785 0.809017 0
    outer loop
      vertex 24.4271 -1.76336 5
      vertex 22.9271 -2.85317 8
      vertex 24.4271 -1.76336 8
    endloop
  endfacet
  facet normal -0.587785 0.809017 0
    outer loop
      vertex 22.9271 -2.85317 8
      vertex 24.4271 -1.76336 5
      vertex 22.9271 -2.85317 5
    endloop
  endfacet
  facet normal 0.951057 -0.309017 0
    outer loop
      vertex 19 0 8
      vertex 19.5729 1.76336 5
      vertex 19.5729 1.76336 8
    endloop
  endfacet
  facet normal 0.951057 -0.309017 0
    outer loop
      vertex 19.5729 1.76336 5
      vertex 19 0 8
      vertex 19 0 5
    endloop
  endfacet
  facet normal 0 0 1
    outer loop
      vertex 23.75 0 5
      vertex 25 0 5
      vertex 24.4271 1.76336 5
    endloop
  endfacet
  facet normal 0 0 1
    outer loop
      vertex 25 0 5
      vertex 23.75 0 5
      vertex 24.4271 -1.76336 5
    endloop
  endfacet
  facet normal 0 0 1
    outer loop
      vertex 22.875 1.51554 5
      vertex 24.4271 1.76336 5
      vertex 22.9271 2.85317 5
    endloop
  endfacet
  facet normal 0 0 1
    outer loop
      vertex 24.4271 1.76336 5
      vertex 22.875 1.51554 5
      vertex 23.75 0 5
    endloop
  endfacet
  facet normal 0 0 1
    outer loop
      vertex 22.9271 2.85317 5
      vertex 21.125 1.51554 5
      vertex 22.875 1.51554 5
    endloop
  endfacet
  facet normal -0 0 1
    outer loop
      vertex 21.0729 2.85317 5
      vertex 21.125 1.51554 5
      vertex 22.9271 2.85317 5
    endloop
  endfacet
  facet normal -0 0 1
    outer loop
      vertex 19.5729 1.76336 5
      vertex 21.125 1.51554 5
      vertex 21.0729 2.85317 5
    endloop
  endfacet
  facet normal 0 0 1
    outer loop
      vertex 21.125 1.51554 5
      vertex 19.5729 1.76336 5
      vertex 20.25 0 5
    endloop
  endfacet
  facet normal -0 0 1
    outer loop
      vertex 22.875 -1.51554 5
      vertex 24.4271 -1.76336 5
      vertex 23.75 0 5
    endloop
  endfacet
  facet normal 0 0 1
    outer loop
      vertex 24.4271 -1.76336 5
      vertex 22.875 -1.51554 5
      vertex 22.9271 -2.85317 5
    endloop
  endfacet
  facet normal -0 0 1
    outer loop
      vertex 21.125 -1.51554 5
      vertex 22.9271 -2.85317 5
      vertex 22.875 -1.51554 5
    endloop
  endfacet
  facet normal 0 0 1
    outer loop
      vertex 21.125 -1.51554 5
      vertex 21.0729 -2.85317 5
      vertex 22.9271 -2.85317 5
    endloop
  endfacet
  facet normal 0 0 1
    outer loop
      vertex 19.5729 -1.76336 5
      vertex 21.125 -1.51554 5
      vertex 20.25 0 5
    endloop
  endfacet
  facet normal 0 0 1
    outer loop
      vertex 19 0 5
      vertex 20.25 0 5
      vertex 19.5729 1.76336 5
    endloop
  endfacet
  facet normal 0 0 1
    outer loop
      vertex 21.125 -1.51554 5
      vertex 19.5729 -1.76336 5
      vertex 21.0729 -2.85317 5
    endloop
  endfacet
  facet normal 0 0 1
    outer loop
      vertex 20.25 0 5
      vertex 19 0 5
      vertex 19.5729 -1.76336 5
    endloop
  endfacet
  facet normal 0 -1 0
    outer loop
      vertex 21.0729 2.85317 5
      vertex 22.9271 2.85317 8
      vertex 21.0729 2.85317 8
    endloop
  endfacet
  facet normal 0 -1 -0
    outer loop
      vertex 22.9271 2.85317 8
      vertex 21.0729 2.85317 5
      vertex 22.9271 2.85317 5
    endloop
  endfacet
  facet normal 0 1 -0
    outer loop
      vertex 22.9271 -2.85317 5
      vertex 21.0729 -2.85317 8
      vertex 22.9271 -2.85317 8
    endloop
  endfacet
  facet normal 0 1 0
    outer loop
      vertex 21.0729 -2.85317 8
      vertex 22.9271 -2.85317 5
      vertex 21.0729 -2.85317 5
    endloop
  endfacet
  facet normal 0.951057 0.309017 0
    outer loop
      vertex 19.5729 -1.76336 8
      vertex 19 0 5
      vertex 19 0 8
    endloop
  endfacet
  facet normal 0.951057 0.309017 0
    outer loop
      vertex 19 0 5
      vertex 19.5729 -1.76336 8
      vertex 19.5729 -1.76336 5
    endloop
  endfacet
  facet normal -0.748511 -0.663123 0
    outer loop
      vertex 3.54182 12.8589 0
      vertex 2.27226 14.2919 8
      vertex 2.27226 14.2919 0
    endloop
  endfacet
  facet normal -0.748511 -0.663123 0
    outer loop
      vertex 2.27226 14.2919 8
      vertex 3.54182 12.8589 0
      vertex 3.54182 12.8589 8
    endloop
  endfacet
  facet normal 0.120537 -0.992709 0
    outer loop
      vertex -1.41842 14.7401 0
      vertex 0.482146 14.9708 8
      vertex -1.41842 14.7401 8
    endloop
  endfacet
  facet normal 0.120537 -0.992709 0
    outer loop
      vertex 0.482146 14.9708 8
      vertex -1.41842 14.7401 0
      vertex 0.482146 14.9708 0
    endloop
  endfacet
  facet normal -0.970942 -0.239316 0
    outer loop
      vertex 4 11 0
      vertex 3.54182 12.8589 8
      vertex 3.54182 12.8589 0
    endloop
  endfacet
  facet normal -0.970942 -0.239316 0
    outer loop
      vertex 3.54182 12.8589 8
      vertex 4 11 0
      vertex 4 11 8
    endloop
  endfacet
  facet normal -0.354605 -0.935016 0
    outer loop
      vertex 0.482146 14.9708 0
      vertex 2.27226 14.2919 8
      vertex 0.482146 14.9708 8
    endloop
  endfacet
  facet normal -0.354605 -0.935016 -0
    outer loop
      vertex 2.27226 14.2919 8
      vertex 0.482146 14.9708 0
      vertex 2.27226 14.2919 0
    endloop
  endfacet
  facet normal 0.885456 0.464723 0
    outer loop
      vertex -2.99404 8.34751 8
      vertex -3.88377 10.0427 0
      vertex -3.88377 10.0427 8
    endloop
  endfacet
  facet normal 0.885456 0.464723 0
    outer loop
      vertex -3.88377 10.0427 0
      vertex -2.99404 8.34751 8
      vertex -2.99404 8.34751 0
    endloop
  endfacet
  facet normal 0.568065 0.822984 -0
    outer loop
      vertex -1.41842 7.25993 0
      vertex -2.99404 8.34751 8
      vertex -1.41842 7.25993 8
    endloop
  endfacet
  facet normal 0.568065 0.822984 0
    outer loop
      vertex -2.99404 8.34751 8
      vertex -1.41842 7.25993 0
      vertex -2.99404 8.34751 0
    endloop
  endfacet
  facet normal -0.748511 0.663123 0
    outer loop
      vertex 2.27226 7.70806 0
      vertex 3.54182 9.14111 8
      vertex 3.54182 9.14111 0
    endloop
  endfacet
  facet normal -0.748511 0.663123 0
    outer loop
      vertex 3.54182 9.14111 8
      vertex 2.27226 7.70806 0
      vertex 2.27226 7.70806 8
    endloop
  endfacet
  facet normal -0.970942 0.239316 0
    outer loop
      vertex 3.54182 9.14111 0
      vertex 4 11 8
      vertex 4 11 0
    endloop
  endfacet
  facet normal -0.970942 0.239316 0
    outer loop
      vertex 4 11 8
      vertex 3.54182 9.14111 0
      vertex 3.54182 9.14111 8
    endloop
  endfacet
  facet normal 0.885456 -0.464723 0
    outer loop
      vertex -3.88377 11.9573 8
      vertex -2.99404 13.6525 0
      vertex -2.99404 13.6525 8
    endloop
  endfacet
  facet normal 0.885456 -0.464723 0
    outer loop
      vertex -2.99404 13.6525 0
      vertex -3.88377 11.9573 8
      vertex -3.88377 11.9573 0
    endloop
  endfacet
  facet normal 0.568065 -0.822984 0
    outer loop
      vertex -2.99404 13.6525 0
      vertex -1.41842 14.7401 8
      vertex -2.99404 13.6525 8
    endloop
  endfacet
  facet normal 0.568065 -0.822984 0
    outer loop
      vertex -1.41842 14.7401 8
      vertex -2.99404 13.6525 0
      vertex -1.41842 14.7401 0
    endloop
  endfacet
  facet normal -0.354605 0.935016 0
    outer loop
      vertex 2.27226 7.70806 0
      vertex 0.482146 7.02916 8
      vertex 2.27226 7.70806 8
    endloop
  endfacet
  facet normal -0.354605 0.935016 0
    outer loop
      vertex 0.482146 7.02916 8
      vertex 2.27226 7.70806 0
      vertex 0.482146 7.02916 0
    endloop
  endfacet
  facet normal 0.120537 0.992709 -0
    outer loop
      vertex 0.482146 7.02916 0
      vertex -1.41842 7.25993 8
      vertex 0.482146 7.02916 8
    endloop
  endfacet
  facet normal 0.120537 0.992709 0
    outer loop
      vertex -1.41842 7.25993 8
      vertex 0.482146 7.02916 0
      vertex -1.41842 7.25993 0
    endloop
  endfacet
  facet normal 1 -0 0
    outer loop
      vertex -3.88377 10.0427 8
      vertex -3.88377 11.9573 0
      vertex -3.88377 11.9573 8
    endloop
  endfacet
  facet normal 1 0 0
    outer loop
      vertex -3.88377 11.9573 0
      vertex -3.88377 10.0427 8
      vertex -3.88377 10.0427 0
    endloop
  endfacet
  facet normal -0.748511 -0.663123 0
    outer loop
      vertex 3.54182 -9.14111 0
      vertex 2.27226 -7.70806 8
      vertex 2.27226 -7.70806 0
    endloop
  endfacet
  facet normal -0.748511 -0.663123 0
    outer loop
      vertex 2.27226 -7.70806 8
      vertex 3.54182 -9.14111 0
      vertex 3.54182 -9.14111 8
    endloop
  endfacet
  facet normal 0.120537 -0.992709 0
    outer loop
      vertex -1.41842 -7.25993 0
      vertex 0.482146 -7.02916 8
      vertex -1.41842 -7.25993 8
    endloop
  endfacet
  facet normal 0.120537 -0.992709 0
    outer loop
      vertex 0.482146 -7.02916 8
      vertex -1.41842 -7.25993 0
      vertex 0.482146 -7.02916 0
    endloop
  endfacet
  facet normal -0.970942 -0.239316 0
    outer loop
      vertex 4 -11 0
      vertex 3.54182 -9.14111 8
      vertex 3.54182 -9.14111 0
    endloop
  endfacet
  facet normal -0.970942 -0.239316 0
    outer loop
      vertex 3.54182 -9.14111 8
      vertex 4 -11 0
      vertex 4 -11 8
    endloop
  endfacet
  facet normal -0.354605 -0.935016 0
    outer loop
      vertex 0.482146 -7.02916 0
      vertex 2.27226 -7.70806 8
      vertex 0.482146 -7.02916 8
    endloop
  endfacet
  facet normal -0.354605 -0.935016 -0
    outer loop
      vertex 2.27226 -7.70806 8
      vertex 0.482146 -7.02916 0
      vertex 2.27226 -7.70806 0
    endloop
  endfacet
  facet normal 0.885456 0.464723 0
    outer loop
      vertex -2.99404 -13.6525 8
      vertex -3.88377 -11.9573 0
      vertex -3.88377 -11.9573 8
    endloop
  endfacet
  facet normal 0.885456 0.464723 0
    outer loop
      vertex -3.88377 -11.9573 0
      vertex -2.99404 -13.6525 8
      vertex -2.99404 -13.6525 0
    endloop
  endfacet
  facet normal -0.970942 0.239316 0
    outer loop
      vertex 3.54182 -12.8589 0
      vertex 4 -11 8
      vertex 4 -11 0
    endloop
  endfacet
  facet normal -0.970942 0.239316 0
    outer loop
      vertex 4 -11 8
      vertex 3.54182 -12.8589 0
      vertex 3.54182 -12.8589 8
    endloop
  endfacet
  facet normal 0.568065 0.822984 -0
    outer loop
      vertex -1.41842 -14.7401 0
      vertex -2.99404 -13.6525 8
      vertex -1.41842 -14.7401 8
    endloop
  endfacet
  facet normal 0.568065 0.822984 0
    outer loop
      vertex -2.99404 -13.6525 8
      vertex -1.41842 -14.7401 0
      vertex -2.99404 -13.6525 0
    endloop
  endfacet
  facet normal -0.748511 0.663123 0
    outer loop
      vertex 2.27226 -14.2919 0
      vertex 3.54182 -12.8589 8
      vertex 3.54182 -12.8589 0
    endloop
  endfacet
  facet normal -0.748511 0.663123 0
    outer loop
      vertex 3.54182 -12.8589 8
      vertex 2.27226 -14.2919 0
      vertex 2.27226 -14.2919 8
    endloop
  endfacet
  facet normal 0.885456 -0.464723 0
    outer loop
      vertex -3.88377 -10.0427 8
      vertex -2.99404 -8.34751 0
      vertex -2.99404 -8.34751 8
    endloop
  endfacet
  facet normal 0.885456 -0.464723 0
    outer loop
      vertex -2.99404 -8.34751 0
      vertex -3.88377 -10.0427 8
      vertex -3.88377 -10.0427 0
    endloop
  endfacet
  facet normal 0.568065 -0.822984 0
    outer loop
      vertex -2.99404 -8.34751 0
      vertex -1.41842 -7.25993 8
      vertex -2.99404 -8.34751 8
    endloop
  endfacet
  facet normal 0.568065 -0.822984 0
    outer loop
      vertex -1.41842 -7.25993 8
      vertex -2.99404 -8.34751 0
      vertex -1.41842 -7.25993 0
    endloop
  endfacet
  facet normal -0.354605 0.935016 0
    outer loop
      vertex 2.27226 -14.2919 0
      vertex 0.482146 -14.9708 8
      vertex 2.27226 -14.2919 8
    endloop
  endfacet
  facet normal -0.354605 0.935016 0
    outer loop
      vertex 0.482146 -14.9708 8
      vertex 2.27226 -14.2919 0
      vertex 0.482146 -14.9708 0
    endloop
  endfacet
  facet normal 0.120537 0.992709 -0
    outer loop
      vertex 0.482146 -14.9708 0
      vertex -1.41842 -14.7401 8
      vertex 0.482146 -14.9708 8
    endloop
  endfacet
  facet normal 0.120537 0.992709 0
    outer loop
      vertex -1.41842 -14.7401 8
      vertex 0.482146 -14.9708 0
      vertex -1.41842 -14.7401 0
    endloop
  endfacet
  facet normal 1 -0 0
    outer loop
      vertex -3.88377 -11.9573 8
      vertex -3.88377 -10.0427 0
      vertex -3.88377 -10.0427 8
    endloop
  endfacet
  facet normal 1 0 0
    outer loop
      vertex -3.88377 -10.0427 0
      vertex -3.88377 -11.9573 8
      vertex -3.88377 -11.9573 0
    endloop
  endfacet
  facet normal 0 -1 0
    outer loop
      vertex 21.125 1.51554 0
      vertex 22.875 1.51554 5
      vertex 21.125 1.51554 5
    endloop
  endfacet
  facet normal 0 -1 -0
    outer loop
      vertex 22.875 1.51554 5
      vertex 21.125 1.51554 0
      vertex 22.875 1.51554 0
    endloop
  endfacet
  facet normal -0.866025 -0.5 0
    outer loop
      vertex 23.75 0 0
      vertex 22.875 1.51554 5
      vertex 22.875 1.51554 0
    endloop
  endfacet
  facet normal -0.866025 -0.5 0
    outer loop
      vertex 22.875 1.51554 5
      vertex 23.75 0 0
      vertex 23.75 0 5
    endloop
  endfacet
  facet normal 0 1 -0
    outer loop
      vertex 22.875 -1.51554 0
      vertex 21.125 -1.51554 5
      vertex 22.875 -1.51554 5
    endloop
  endfacet
  facet normal 0 1 0
    outer loop
      vertex 21.125 -1.51554 5
      vertex 22.875 -1.51554 0
      vertex 21.125 -1.51554 0
    endloop
  endfacet
  facet normal 0.866025 -0.5 0
    outer loop
      vertex 20.25 0 5
      vertex 21.125 1.51554 0
      vertex 21.125 1.51554 5
    endloop
  endfacet
  facet normal 0.866025 -0.5 0
    outer loop
      vertex 21.125 1.51554 0
      vertex 20.25 0 5
      vertex 20.25 0 0
    endloop
  endfacet
  facet normal -0.866025 0.5 0
    outer loop
      vertex 22.875 -1.51554 0
      vertex 23.75 0 5
      vertex 23.75 0 0
    endloop
  endfacet
  facet normal -0.866025 0.5 0
    outer loop
      vertex 23.75 0 5
      vertex 22.875 -1.51554 0
      vertex 22.875 -1.51554 5
    endloop
  endfacet
  facet normal 0.866025 0.5 0
    outer loop
      vertex 21.125 -1.51554 5
      vertex 20.25 0 0
      vertex 20.25 0 5
    endloop
  endfacet
  facet normal 0.866025 0.5 0
    outer loop
      vertex 20.25 0 0
      vertex 21.125 -1.51554 5
      vertex 21.125 -1.51554 0
    endloop
  endfacet
  facet normal 0 -1 0
    outer loop
      vertex -0.874999 1.51554 0
      vertex 0.875 1.51554 4
      vertex -0.874999 1.51554 4
    endloop
  endfacet
  facet normal 0 -1 -0
    outer loop
      vertex 0.875 1.51554 4
      vertex -0.874999 1.51554 0
      vertex 0.875 1.51554 0
    endloop
  endfacet
  facet normal -0.866025 -0.5 0
    outer loop
      vertex 1.75 0 0
      vertex 0.875 1.51554 4
      vertex 0.875 1.51554 0
    endloop
  endfacet
  facet normal -0.866025 -0.5 0
    outer loop
      vertex 0.875 1.51554 4
      vertex 1.75 0 0
      vertex 1.75 0 4
    endloop
  endfacet
  facet normal 0 1 -0
    outer loop
      vertex 0.875 -1.51554 0
      vertex -0.875 -1.51554 4
      vertex 0.875 -1.51554 4
    endloop
  endfacet
  facet normal 0 1 0
    outer loop
      vertex -0.875 -1.51554 4
      vertex 0.875 -1.51554 0
      vertex -0.875 -1.51554 0
    endloop
  endfacet
  facet normal 0.866025 -0.500001 0
    outer loop
      vertex -1.75 0 4
      vertex -0.874999 1.51554 0
      vertex -0.874999 1.51554 4
    endloop
  endfacet
  facet normal 0.866025 -0.500001 0
    outer loop
      vertex -0.874999 1.51554 0
      vertex -1.75 0 4
      vertex -1.75 0 0
    endloop
  endfacet
  facet normal -0.866025 0.5 0
    outer loop
      vertex 0.875 -1.51554 0
      vertex 1.75 0 4
      vertex 1.75 0 0
    endloop
  endfacet
  facet normal -0.866025 0.5 0
    outer loop
      vertex 1.75 0 4
      vertex 0.875 -1.51554 0
      vertex 0.875 -1.51554 4
    endloop
  endfacet
  facet normal 0.866025 0.5 0
    outer loop
      vertex -0.875 -1.51554 4
      vertex -1.75 0 0
      vertex -1.75 0 4
    endloop
  endfacet
  facet normal 0.866025 0.5 0
    outer loop
      vertex -1.75 0 0
      vertex -0.875 -1.51554 4
      vertex -0.875 -1.51554 0
    endloop
  endfacet
  facet normal -0.587785 -0.809017 0
    outer loop
      vertex 0.927051 2.85317 4
      vertex 2.42705 1.76336 8
      vertex 0.927051 2.85317 8
    endloop
  endfacet
  facet normal -0.587785 -0.809017 -0
    outer loop
      vertex 2.42705 1.76336 8
      vertex 0.927051 2.85317 4
      vertex 2.42705 1.76336 4
    endloop
  endfacet
  facet normal 0.951056 0.309017 0
    outer loop
      vertex -2.42705 -1.76336 8
      vertex -3 0 4
      vertex -3 0 8
    endloop
  endfacet
  facet normal 0.951056 0.309017 0
    outer loop
      vertex -3 0 4
      vertex -2.42705 -1.76336 8
      vertex -2.42705 -1.76336 4
    endloop
  endfacet
  facet normal -0.951056 -0.309017 0
    outer loop
      vertex 3 0 4
      vertex 2.42705 1.76336 8
      vertex 2.42705 1.76336 4
    endloop
  endfacet
  facet normal -0.951056 -0.309017 0
    outer loop
      vertex 2.42705 1.76336 8
      vertex 3 0 4
      vertex 3 0 8
    endloop
  endfacet
  facet normal 0.587785 -0.809017 0
    outer loop
      vertex -2.42705 1.76336 4
      vertex -0.927051 2.85317 8
      vertex -2.42705 1.76336 8
    endloop
  endfacet
  facet normal 0.587785 -0.809017 0
    outer loop
      vertex -0.927051 2.85317 8
      vertex -2.42705 1.76336 4
      vertex -0.927051 2.85317 4
    endloop
  endfacet
  facet normal 0.587785 0.809017 -0
    outer loop
      vertex -0.927051 -2.85317 4
      vertex -2.42705 -1.76336 8
      vertex -0.927051 -2.85317 8
    endloop
  endfacet
  facet normal 0.587785 0.809017 0
    outer loop
      vertex -2.42705 -1.76336 8
      vertex -0.927051 -2.85317 4
      vertex -2.42705 -1.76336 4
    endloop
  endfacet
  facet normal -0.587785 0.809017 0
    outer loop
      vertex 2.42705 -1.76336 4
      vertex 0.927051 -2.85317 8
      vertex 2.42705 -1.76336 8
    endloop
  endfacet
  facet normal -0.587785 0.809017 0
    outer loop
      vertex 0.927051 -2.85317 8
      vertex 2.42705 -1.76336 4
      vertex 0.927051 -2.85317 4
    endloop
  endfacet
  facet normal 0.951056 -0.309017 0
    outer loop
      vertex -3 0 8
      vertex -2.42705 1.76336 4
      vertex -2.42705 1.76336 8
    endloop
  endfacet
  facet normal 0.951056 -0.309017 0
    outer loop
      vertex -2.42705 1.76336 4
      vertex -3 0 8
      vertex -3 0 4
    endloop
  endfacet
  facet normal 0 0 1
    outer loop
      vertex 1.75 0 4
      vertex 3 0 4
      vertex 2.42705 1.76336 4
    endloop
  endfacet
  facet normal 0 0 1
    outer loop
      vertex 3 0 4
      vertex 1.75 0 4
      vertex 2.42705 -1.76336 4
    endloop
  endfacet
  facet normal 0 0 1
    outer loop
      vertex 0.875 1.51554 4
      vertex 2.42705 1.76336 4
      vertex 0.927051 2.85317 4
    endloop
  endfacet
  facet normal 0 0 1
    outer loop
      vertex 2.42705 1.76336 4
      vertex 0.875 1.51554 4
      vertex 1.75 0 4
    endloop
  endfacet
  facet normal 0 0 1
    outer loop
      vertex 0.927051 2.85317 4
      vertex -0.874999 1.51554 4
      vertex 0.875 1.51554 4
    endloop
  endfacet
  facet normal -0 0 1
    outer loop
      vertex -0.927051 2.85317 4
      vertex -0.874999 1.51554 4
      vertex 0.927051 2.85317 4
    endloop
  endfacet
  facet normal -0 0 1
    outer loop
      vertex -2.42705 1.76336 4
      vertex -0.874999 1.51554 4
      vertex -0.927051 2.85317 4
    endloop
  endfacet
  facet normal 0 0 1
    outer loop
      vertex -0.874999 1.51554 4
      vertex -2.42705 1.76336 4
      vertex -1.75 0 4
    endloop
  endfacet
  facet normal -0 0 1
    outer loop
      vertex 0.875 -1.51554 4
      vertex 2.42705 -1.76336 4
      vertex 1.75 0 4
    endloop
  endfacet
  facet normal 0 0 1
    outer loop
      vertex 2.42705 -1.76336 4
      vertex 0.875 -1.51554 4
      vertex 0.927051 -2.85317 4
    endloop
  endfacet
  facet normal -0 0 1
    outer loop
      vertex -0.875 -1.51554 4
      vertex 0.927051 -2.85317 4
      vertex 0.875 -1.51554 4
    endloop
  endfacet
  facet normal 0 0 1
    outer loop
      vertex -0.875 -1.51554 4
      vertex -0.927051 -2.85317 4
      vertex 0.927051 -2.85317 4
    endloop
  endfacet
  facet normal 0 0 1
    outer loop
      vertex -2.42705 -1.76336 4
      vertex -0.875 -1.51554 4
      vertex -1.75 0 4
    endloop
  endfacet
  facet normal 0 0 1
    outer loop
      vertex -3 0 4
      vertex -1.75 0 4
      vertex -2.42705 1.76336 4
    endloop
  endfacet
  facet normal 0 0 1
    outer loop
      vertex -0.875 -1.51554 4
      vertex -2.42705 -1.76336 4
      vertex -0.927051 -2.85317 4
    endloop
  endfacet
  facet normal 0 0 1
    outer loop
      vertex -1.75 0 4
      vertex -3 0 4
      vertex -2.42705 -1.76336 4
    endloop
  endfacet
  facet normal 0 -1 0
    outer loop
      vertex -0.927051 2.85317 4
      vertex 0.927051 2.85317 8
      vertex -0.927051 2.85317 8
    endloop
  endfacet
  facet normal 0 -1 -0
    outer loop
      vertex 0.927051 2.85317 8
      vertex -0.927051 2.85317 4
      vertex 0.927051 2.85317 4
    endloop
  endfacet
  facet normal 0 1 -0
    outer loop
      vertex 0.927051 -2.85317 4
      vertex -0.927051 -2.85317 8
      vertex 0.927051 -2.85317 8
    endloop
  endfacet
  facet normal 0 1 0
    outer loop
      vertex -0.927051 -2.85317 8
      vertex 0.927051 -2.85317 4
      vertex -0.927051 -2.85317 4
    endloop
  endfacet
  facet normal -0.951056 0.309017 0
    outer loop
      vertex 2.42705 -1.76336 4
      vertex 3 0 8
      vertex 3 0 4
    endloop
  endfacet
  facet normal -0.951056 0.309017 0
    outer loop
      vertex 3 0 8
      vertex 2.42705 -1.76336 4
      vertex 2.42705 -1.76336 8
    endloop
  endfacet
  facet normal 0 0 -1
    outer loop
      vertex 1.75 0 0
      vertex 20.25 0 0
      vertex 3.54182 -9.14111 0
    endloop
  endfacet
  facet normal 0 0 -1
    outer loop
      vertex 20.25 0 0
      vertex 3.54182 9.14111 0
      vertex 4 11 0
    endloop
  endfacet
  facet normal 0 0 -1
    outer loop
      vertex 1.75 0 0
      vertex 3.54182 -9.14111 0
      vertex 2.27226 -7.70806 0
    endloop
  endfacet
  facet normal 0 0 -1
    outer loop
      vertex 20.25 0 0
      vertex 1.75 0 0
      vertex 3.54182 9.14111 0
    endloop
  endfacet
  facet normal 0 0 -1
    outer loop
      vertex 3.54182 9.14111 0
      vertex 1.75 0 0
      vertex 2.27226 7.70806 0
    endloop
  endfacet
  facet normal 0 0 -1
    outer loop
      vertex 2.27226 -7.70806 0
      vertex 0.875 -1.51554 0
      vertex 1.75 0 0
    endloop
  endfacet
  facet normal 0 0 -1
    outer loop
      vertex 0.482146 -7.02916 0
      vertex 0.875 -1.51554 0
      vertex 2.27226 -7.70806 0
    endloop
  endfacet
  facet normal 0 0 -1
    outer loop
      vertex 0.482146 -7.02916 0
      vertex -0.875 -1.51554 0
      vertex 0.875 -1.51554 0
    endloop
  endfacet
  facet normal 0 0 -1
    outer loop
      vertex -1.41842 -7.25993 0
      vertex -0.875 -1.51554 0
      vertex 0.482146 -7.02916 0
    endloop
  endfacet
  facet normal 0 0 -1
    outer loop
      vertex -2.99404 -8.34751 0
      vertex -0.875 -1.51554 0
      vertex -1.41842 -7.25993 0
    endloop
  endfacet
  facet normal -0 0 -1
    outer loop
      vertex -0.875 -1.51554 0
      vertex -2.99404 -8.34751 0
      vertex -1.75 0 0
    endloop
  endfacet
  facet normal 0 0 -1
    outer loop
      vertex 26 -26 0
      vertex 23.75 0 0
      vertex 26 26 0
    endloop
  endfacet
  facet normal 0 0 -1
    outer loop
      vertex 26 -26 0
      vertex 22.875 -1.51554 0
      vertex 23.75 0 0
    endloop
  endfacet
  facet normal 0 0 -1
    outer loop
      vertex 26 -26 0
      vertex 21.125 -1.51554 0
      vertex 22.875 -1.51554 0
    endloop
  endfacet
  facet normal 0 0 -1
    outer loop
      vertex 4 -11 0
      vertex 21.125 -1.51554 0
      vertex 26 -26 0
    endloop
  endfacet
  facet normal 0 0 -1
    outer loop
      vertex 3.54182 -9.14111 0
      vertex 21.125 -1.51554 0
      vertex 4 -11 0
    endloop
  endfacet
  facet normal 0 0 -1
    outer loop
      vertex 26 -26 0
      vertex 3.54182 -12.8589 0
      vertex 4 -11 0
    endloop
  endfacet
  facet normal 0 0 -1
    outer loop
      vertex 26 -26 0
      vertex 2.27226 -14.2919 0
      vertex 3.54182 -12.8589 0
    endloop
  endfacet
  facet normal 0 0 -1
    outer loop
      vertex 26 -26 0
      vertex 0.482146 -14.9708 0
      vertex 2.27226 -14.2919 0
    endloop
  endfacet
  facet normal 0 0 -1
    outer loop
      vertex -26 -26 0
      vertex 0.482146 -14.9708 0
      vertex 26 -26 0
    endloop
  endfacet
  facet normal 0 0 -1
    outer loop
      vertex -26 -26 0
      vertex -3.88377 -10.0427 0
      vertex -3.88377 -11.9573 0
    endloop
  endfacet
  facet normal -0 0 -1
    outer loop
      vertex -3.88377 -10.0427 0
      vertex -26 -26 0
      vertex -3.88377 10.0427 0
    endloop
  endfacet
  facet normal 0 0 -1
    outer loop
      vertex -26 26 0
      vertex -3.88377 10.0427 0
      vertex -26 -26 0
    endloop
  endfacet
  facet normal -0 0 -1
    outer loop
      vertex -2.99404 -13.6525 0
      vertex -26 -26 0
      vertex -3.88377 -11.9573 0
    endloop
  endfacet
  facet normal -0 0 -1
    outer loop
      vertex -1.41842 -14.7401 0
      vertex -26 -26 0
      vertex -2.99404 -13.6525 0
    endloop
  endfacet
  facet normal -0 0 -1
    outer loop
      vertex 0.482146 -14.9708 0
      vertex -26 -26 0
      vertex -1.41842 -14.7401 0
    endloop
  endfacet
  facet normal 0 0 -1
    outer loop
      vertex 22.875 1.51554 0
      vertex 26 26 0
      vertex 23.75 0 0
    endloop
  endfacet
  facet normal 0 0 -1
    outer loop
      vertex 21.125 1.51554 0
      vertex 26 26 0
      vertex 22.875 1.51554 0
    endloop
  endfacet
  facet normal 0 0 -1
    outer loop
      vertex 4 11 0
      vertex 21.125 1.51554 0
      vertex 20.25 0 0
    endloop
  endfacet
  facet normal -0 0 -1
    outer loop
      vertex 21.125 -1.51554 0
      vertex 3.54182 -9.14111 0
      vertex 20.25 0 0
    endloop
  endfacet
  facet normal 0 0 -1
    outer loop
      vertex 21.125 1.51554 0
      vertex 4 11 0
      vertex 26 26 0
    endloop
  endfacet
  facet normal 0 0 -1
    outer loop
      vertex 3.54182 12.8589 0
      vertex 26 26 0
      vertex 4 11 0
    endloop
  endfacet
  facet normal 0 0 -1
    outer loop
      vertex 2.27226 14.2919 0
      vertex 26 26 0
      vertex 3.54182 12.8589 0
    endloop
  endfacet
  facet normal 0 0 -1
    outer loop
      vertex 0.482146 14.9708 0
      vertex 26 26 0
      vertex 2.27226 14.2919 0
    endloop
  endfacet
  facet normal 0 0 -1
    outer loop
      vertex -26 26 0
      vertex 0.482146 14.9708 0
      vertex -1.41842 14.7401 0
    endloop
  endfacet
  facet normal 0 0 -1
    outer loop
      vertex -3.88377 10.0427 0
      vertex -26 26 0
      vertex -3.88377 11.9573 0
    endloop
  endfacet
  facet normal 0 0 -1
    outer loop
      vertex 0.482146 14.9708 0
      vertex -26 26 0
      vertex 26 26 0
    endloop
  endfacet
  facet normal 0 0 -1
    outer loop
      vertex -2.99404 13.6525 0
      vertex -26 26 0
      vertex -1.41842 14.7401 0
    endloop
  endfacet
  facet normal 0 0 -1
    outer loop
      vertex -3.88377 11.9573 0
      vertex -26 26 0
      vertex -2.99404 13.6525 0
    endloop
  endfacet
  facet normal 0 0 -1
    outer loop
      vertex 0.875 1.51554 0
      vertex 2.27226 7.70806 0
      vertex 1.75 0 0
    endloop
  endfacet
  facet normal 0 0 -1
    outer loop
      vertex 0.875 1.51554 0
      vertex 0.482146 7.02916 0
      vertex 2.27226 7.70806 0
    endloop
  endfacet
  facet normal 0 0 -1
    outer loop
      vertex -0.874999 1.51554 0
      vertex 0.482146 7.02916 0
      vertex 0.875 1.51554 0
    endloop
  endfacet
  facet normal 0 0 -1
    outer loop
      vertex -0.874999 1.51554 0
      vertex -1.41842 7.25993 0
      vertex 0.482146 7.02916 0
    endloop
  endfacet
  facet normal 0 0 -1
    outer loop
      vertex -2.99404 8.34751 0
      vertex -0.874999 1.51554 0
      vertex -1.75 0 0
    endloop
  endfacet
  facet normal 0 0 -1
    outer loop
      vertex -3.88377 -10.0427 0
      vertex -1.75 0 0
      vertex -2.99404 -8.34751 0
    endloop
  endfacet
  facet normal 0 0 -1
    outer loop
      vertex -0.874999 1.51554 0
      vertex -2.99404 8.34751 0
      vertex -1.41842 7.25993 0
    endloop
  endfacet
  facet normal 0 0 -1
    outer loop
      vertex -3.88377 10.0427 0
      vertex -1.75 0 0
      vertex -3.88377 -10.0427 0
    endloop
  endfacet
  facet normal 0 0 -1
    outer loop
      vertex -1.75 0 0
      vertex -3.88377 10.0427 0
      vertex -2.99404 8.34751 0
    endloop
  endfacet
  facet normal 1 -0 0
    outer loop
      vertex 26 -26 8
      vertex 26 26 0
      vertex 26 26 8
    endloop
  endfacet
  facet normal 1 0 0
    outer loop
      vertex 26 26 0
      vertex 26 -26 8
      vertex 26 -26 0
    endloop
  endfacet
  facet normal -1 0 0
    outer loop
      vertex -26 -26 0
      vertex -26 26 8
      vertex -26 26 0
    endloop
  endfacet
  facet normal -1 -0 0
    outer loop
      vertex -26 26 8
      vertex -26 -26 0
      vertex -26 -26 8
    endloop
  endfacet
  facet normal 0 -1 0
    outer loop
      vertex -26 -26 0
      vertex 26 -26 8
      vertex -26 -26 8
    endloop
  endfacet
  facet normal 0 -1 -0
    outer loop
      vertex 26 -26 8
      vertex -26 -26 0
      vertex 26 -26 0
    endloop
  endfacet
  facet normal 0 1 -0
    outer loop
      vertex 26 26 0
      vertex -26 26 8
      vertex 26 26 8
    endloop
  endfacet
  facet normal 0 1 0
    outer loop
      vertex -26 26 8
      vertex 26 26 0
      vertex -26 26 0
    endloop
  endfacet
  facet normal 0 0 1
    outer loop
      vertex 19.5729 1.76336 8
      vertex 2.42705 1.76336 8
      vertex 19 0 8
    endloop
  endfacet
  facet normal 0 0 1
    outer loop
      vertex 2.42705 -1.76336 8
      vertex 19 0 8
      vertex 3 0 8
    endloop
  endfacet
  facet normal 0 0 1
    outer loop
      vertex 19 0 8
      vertex 3.54182 -9.14111 8
      vertex 4 -11 8
    endloop
  endfacet
  facet normal 0 0 1
    outer loop
      vertex 19 0 8
      vertex 2.42705 1.76336 8
      vertex 3 0 8
    endloop
  endfacet
  facet normal -0 0 1
    outer loop
      vertex 2.27226 7.70806 8
      vertex 2.42705 1.76336 8
      vertex 3.54182 9.14111 8
    endloop
  endfacet
  facet normal 0 0 1
    outer loop
      vertex 2.27226 7.70806 8
      vertex 0.927051 2.85317 8
      vertex 2.42705 1.76336 8
    endloop
  endfacet
  facet normal -0 0 1
    outer loop
      vertex 0.482146 7.02916 8
      vertex 0.927051 2.85317 8
      vertex 2.27226 7.70806 8
    endloop
  endfacet
  facet normal 0 0 1
    outer loop
      vertex 0.482146 7.02916 8
      vertex -0.927051 2.85317 8
      vertex 0.927051 2.85317 8
    endloop
  endfacet
  facet normal 0 0 1
    outer loop
      vertex -1.41842 7.25993 8
      vertex -0.927051 2.85317 8
      vertex 0.482146 7.02916 8
    endloop
  endfacet
  facet normal 0 0 1
    outer loop
      vertex -1.41842 7.25993 8
      vertex -2.42705 1.76336 8
      vertex -0.927051 2.85317 8
    endloop
  endfacet
  facet normal 0 0 1
    outer loop
      vertex -2.99404 8.34751 8
      vertex -2.42705 1.76336 8
      vertex -1.41842 7.25993 8
    endloop
  endfacet
  facet normal 0 0 1
    outer loop
      vertex -2.99404 8.34751 8
      vertex -3 0 8
      vertex -2.42705 1.76336 8
    endloop
  endfacet
  facet normal 0 -0 1
    outer loop
      vertex -3 0 8
      vertex -2.99404 8.34751 8
      vertex -3.88377 10.0427 8
    endloop
  endfacet
  facet normal 0 0 1
    outer loop
      vertex 26 26 8
      vertex 25 0 8
      vertex 26 -26 8
    endloop
  endfacet
  facet normal 0 0 1
    outer loop
      vertex 26 26 8
      vertex 24.4271 1.76336 8
      vertex 25 0 8
    endloop
  endfacet
  facet normal 0 0 1
    outer loop
      vertex 26 26 8
      vertex 22.9271 2.85317 8
      vertex 24.4271 1.76336 8
    endloop
  endfacet
  facet normal 0 0 1
    outer loop
      vertex 26 26 8
      vertex 21.0729 2.85317 8
      vertex 22.9271 2.85317 8
    endloop
  endfacet
  facet normal -0 0 1
    outer loop
      vertex 3.54182 12.8589 8
      vertex 21.0729 2.85317 8
      vertex 26 26 8
    endloop
  endfacet
  facet normal -0 -0 1
    outer loop
      vertex 4 11 8
      vertex 21.0729 2.85317 8
      vertex 3.54182 12.8589 8
    endloop
  endfacet
  facet normal -0 0 1
    outer loop
      vertex 3.54182 9.14111 8
      vertex 19.5729 1.76336 8
      vertex 4 11 8
    endloop
  endfacet
  facet normal 0 0 1
    outer loop
      vertex 21.0729 2.85317 8
      vertex 4 11 8
      vertex 19.5729 1.76336 8
    endloop
  endfacet
  facet normal 0 0 1
    outer loop
      vertex 26 26 8
      vertex 2.27226 14.2919 8
      vertex 3.54182 12.8589 8
    endloop
  endfacet
  facet normal 0 0 1
    outer loop
      vertex 26 26 8
      vertex 0.482146 14.9708 8
      vertex 2.27226 14.2919 8
    endloop
  endfacet
  facet normal -0 0 1
    outer loop
      vertex -26 26 8
      vertex 0.482146 14.9708 8
      vertex 26 26 8
    endloop
  endfacet
  facet normal 0 0 1
    outer loop
      vertex -26 26 8
      vertex -3.88377 10.0427 8
      vertex -3.88377 11.9573 8
    endloop
  endfacet
  facet normal 0 0 1
    outer loop
      vertex -3.88377 10.0427 8
      vertex -26 26 8
      vertex -3.88377 -10.0427 8
    endloop
  endfacet
  facet normal 0 0 1
    outer loop
      vertex -26 -26 8
      vertex -3.88377 -10.0427 8
      vertex -26 26 8
    endloop
  endfacet
  facet normal 0 0 1
    outer loop
      vertex -2.99404 13.6525 8
      vertex -26 26 8
      vertex -3.88377 11.9573 8
    endloop
  endfacet
  facet normal 0 0 1
    outer loop
      vertex -1.41842 14.7401 8
      vertex -26 26 8
      vertex -2.99404 13.6525 8
    endloop
  endfacet
  facet normal 0 0 1
    outer loop
      vertex 0.482146 14.9708 8
      vertex -26 26 8
      vertex -1.41842 14.7401 8
    endloop
  endfacet
  facet normal -0 0 1
    outer loop
      vertex 24.4271 -1.76336 8
      vertex 26 -26 8
      vertex 25 0 8
    endloop
  endfacet
  facet normal -0 0 1
    outer loop
      vertex 22.9271 -2.85317 8
      vertex 26 -26 8
      vertex 24.4271 -1.76336 8
    endloop
  endfacet
  facet normal -0 0 1
    outer loop
      vertex 21.0729 -2.85317 8
      vertex 26 -26 8
      vertex 22.9271 -2.85317 8
    endloop
  endfacet
  facet normal 0 0 1
    outer loop
      vertex 4 -11 8
      vertex 21.0729 -2.85317 8
      vertex 19.5729 -1.76336 8
    endloop
  endfacet
  facet normal 0 0 1
    outer loop
      vertex 4 -11 8
      vertex 19.5729 -1.76336 8
      vertex 19 0 8
    endloop
  endfacet
  facet normal 0 0 1
    outer loop
      vertex 2.42705 1.76336 8
      vertex 19.5729 1.76336 8
      vertex 3.54182 9.14111 8
    endloop
  endfacet
  facet normal 0 0 1
    outer loop
      vertex 21.0729 -2.85317 8
      vertex 4 -11 8
      vertex 3.54182 -12.8589 8
    endloop
  endfacet
  facet normal 0 0 1
    outer loop
      vertex 21.0729 -2.85317 8
      vertex 3.54182 -12.8589 8
      vertex 26 -26 8
    endloop
  endfacet
  facet normal -0 0 1
    outer loop
      vertex 2.27226 -14.2919 8
      vertex 26 -26 8
      vertex 3.54182 -12.8589 8
    endloop
  endfacet
  facet normal -0 0 1
    outer loop
      vertex 0.482146 -14.9708 8
      vertex 26 -26 8
      vertex 2.27226 -14.2919 8
    endloop
  endfacet
  facet normal 0 0 1
    outer loop
      vertex -26 -26 8
      vertex 0.482146 -14.9708 8
      vertex -1.41842 -14.7401 8
    endloop
  endfacet
  facet normal 0 0 1
    outer loop
      vertex -3.88377 -10.0427 8
      vertex -26 -26 8
      vertex -3.88377 -11.9573 8
    endloop
  endfacet
  facet normal 0 0 1
    outer loop
      vertex 0.482146 -14.9708 8
      vertex -26 -26 8
      vertex 26 -26 8
    endloop
  endfacet
  facet normal 0 0 1
    outer loop
      vertex -2.99404 -13.6525 8
      vertex -26 -26 8
      vertex -1.41842 -14.7401 8
    endloop
  endfacet
  facet normal 0 0 1
    outer loop
      vertex -3.88377 -11.9573 8
      vertex -26 -26 8
      vertex -2.99404 -13.6525 8
    endloop
  endfacet
  facet normal 0 0 1
    outer loop
      vertex 19 0 8
      vertex 2.42705 -1.76336 8
      vertex 3.54182 -9.14111 8
    endloop
  endfacet
  facet normal 0 0 1
    outer loop
      vertex 2.42705 -1.76336 8
      vertex 2.27226 -7.70806 8
      vertex 3.54182 -9.14111 8
    endloop
  endfacet
  facet normal -0 0 1
    outer loop
      vertex 0.927051 -2.85317 8
      vertex 2.27226 -7.70806 8
      vertex 2.42705 -1.76336 8
    endloop
  endfacet
  facet normal 0 0 1
    outer loop
      vertex 0.927051 -2.85317 8
      vertex 0.482146 -7.02916 8
      vertex 2.27226 -7.70806 8
    endloop
  endfacet
  facet normal -0 0 1
    outer loop
      vertex -0.927051 -2.85317 8
      vertex 0.482146 -7.02916 8
      vertex 0.927051 -2.85317 8
    endloop
  endfacet
  facet normal 0 0 1
    outer loop
      vertex -0.927051 -2.85317 8
      vertex -1.41842 -7.25993 8
      vertex 0.482146 -7.02916 8
    endloop
  endfacet
  facet normal 0 0 1
    outer loop
      vertex -2.42705 -1.76336 8
      vertex -1.41842 -7.25993 8
      vertex -0.927051 -2.85317 8
    endloop
  endfacet
  facet normal 0 0 1
    outer loop
      vertex -2.42705 -1.76336 8
      vertex -2.99404 -8.34751 8
      vertex -1.41842 -7.25993 8
    endloop
  endfacet
  facet normal 0 0 1
    outer loop
      vertex -3 0 8
      vertex -2.99404 -8.34751 8
      vertex -2.42705 -1.76336 8
    endloop
  endfacet
  facet normal 0 0 1
    outer loop
      vertex -3.88377 -10.0427 8
      vertex -3 0 8
      vertex -3.88377 10.0427 8
    endloop
  endfacet
  facet normal 0 0 1
    outer loop
      vertex -3 0 8
      vertex -3.88377 -10.0427 8
      vertex -2.99404 -8.34751 8
    endloop
  endfacet
endsolid OpenSCAD_Model
