solid OpenSCAD_Model
  facet normal -0.587785 -0.809017 0
    outer loop
      vertex 19.9271 2.85317 2
      vertex 21.4271 1.76336 5
      vertex 19.9271 2.85317 5
    endloop
  endfacet
  facet normal -0.587785 -0.809017 -0
    outer loop
      vertex 21.4271 1.76336 5
      vertex 19.9271 2.85317 2
      vertex 21.4271 1.76336 2
    endloop
  endfacet
  facet normal -0.951057 -0.309017 0
    outer loop
      vertex 22 0 2
      vertex 21.4271 1.76336 5
      vertex 21.4271 1.76336 2
    endloop
  endfacet
  facet normal -0.951057 -0.309017 0
    outer loop
      vertex 21.4271 1.76336 5
      vertex 22 0 2
      vertex 22 0 5
    endloop
  endfacet
  facet normal 0.587785 -0.809017 0
    outer loop
      vertex 16.5729 1.76336 2
      vertex 18.0729 2.85317 5
      vertex 16.5729 1.76336 5
    endloop
  endfacet
  facet normal 0.587785 -0.809017 0
    outer loop
      vertex 18.0729 2.85317 5
      vertex 16.5729 1.76336 2
      vertex 18.0729 2.85317 2
    endloop
  endfacet
  facet normal 0.587785 0.809017 -0
    outer loop
      vertex 18.0729 -2.85317 2
      vertex 16.5729 -1.76336 5
      vertex 18.0729 -2.85317 5
    endloop
  endfacet
  facet normal 0.587785 0.809017 0
    outer loop
      vertex 16.5729 -1.76336 5
      vertex 18.0729 -2.85317 2
      vertex 16.5729 -1.76336 2
    endloop
  endfacet
  facet normal -0.587785 0.809017 0
    outer loop
      vertex 21.4271 -1.76336 2
      vertex 19.9271 -2.85317 5
      vertex 21.4271 -1.76336 5
    endloop
  endfacet
  facet normal -0.587785 0.809017 0
    outer loop
      vertex 19.9271 -2.85317 5
      vertex 21.4271 -1.76336 2
      vertex 19.9271 -2.85317 2
    endloop
  endfacet
  facet normal 0.951057 -0.309017 0
    outer loop
      vertex 16 0 5
      vertex 16.5729 1.76336 2
      vertex 16.5729 1.76336 5
    endloop
  endfacet
  facet normal 0.951057 -0.309017 0
    outer loop
      vertex 16.5729 1.76336 2
      vertex 16 0 5
      vertex 16 0 2
    endloop
  endfacet
  facet normal 0 0 1
    outer loop
      vertex 20.75 0 2
      vertex 22 0 2
      vertex 21.4271 1.76336 2
    endloop
  endfacet
  facet normal 0 0 1
    outer loop
      vertex 22 0 2
      vertex 20.75 0 2
      vertex 21.4271 -1.76336 2
    endloop
  endfacet
  facet normal 0 0 1
    outer loop
      vertex 19.875 1.51554 2
      vertex 21.4271 1.76336 2
      vertex 19.9271 2.85317 2
    endloop
  endfacet
  facet normal 0 0 1
    outer loop
      vertex 21.4271 1.76336 2
      vertex 19.875 1.51554 2
      vertex 20.75 0 2
    endloop
  endfacet
  facet normal 0 0 1
    outer loop
      vertex 19.9271 2.85317 2
      vertex 18.125 1.51554 2
      vertex 19.875 1.51554 2
    endloop
  endfacet
  facet normal -0 0 1
    outer loop
      vertex 18.0729 2.85317 2
      vertex 18.125 1.51554 2
      vertex 19.9271 2.85317 2
    endloop
  endfacet
  facet normal -0 0 1
    outer loop
      vertex 16.5729 1.76336 2
      vertex 18.125 1.51554 2
      vertex 18.0729 2.85317 2
    endloop
  endfacet
  facet normal 0 0 1
    outer loop
      vertex 18.125 1.51554 2
      vertex 16.5729 1.76336 2
      vertex 17.25 0 2
    endloop
  endfacet
  facet normal -0 0 1
    outer loop
      vertex 19.875 -1.51554 2
      vertex 21.4271 -1.76336 2
      vertex 20.75 0 2
    endloop
  endfacet
  facet normal 0 0 1
    outer loop
      vertex 21.4271 -1.76336 2
      vertex 19.875 -1.51554 2
      vertex 19.9271 -2.85317 2
    endloop
  endfacet
  facet normal -0 0 1
    outer loop
      vertex 18.125 -1.51554 2
      vertex 19.9271 -2.85317 2
      vertex 19.875 -1.51554 2
    endloop
  endfacet
  facet normal 0 0 1
    outer loop
      vertex 18.125 -1.51554 2
      vertex 18.0729 -2.85317 2
      vertex 19.9271 -2.85317 2
    endloop
  endfacet
  facet normal 0 0 1
    outer loop
      vertex 16.5729 -1.76336 2
      vertex 18.125 -1.51554 2
      vertex 17.25 0 2
    endloop
  endfacet
  facet normal 0 0 1
    outer loop
      vertex 16 0 2
      vertex 17.25 0 2
      vertex 16.5729 1.76336 2
    endloop
  endfacet
  facet normal 0 0 1
    outer loop
      vertex 18.125 -1.51554 2
      vertex 16.5729 -1.76336 2
      vertex 18.0729 -2.85317 2
    endloop
  endfacet
  facet normal 0 0 1
    outer loop
      vertex 17.25 0 2
      vertex 16 0 2
      vertex 16.5729 -1.76336 2
    endloop
  endfacet
  facet normal 0 -1 0
    outer loop
      vertex 18.0729 2.85317 2
      vertex 19.9271 2.85317 5
      vertex 18.0729 2.85317 5
    endloop
  endfacet
  facet normal 0 -1 -0
    outer loop
      vertex 19.9271 2.85317 5
      vertex 18.0729 2.85317 2
      vertex 19.9271 2.85317 2
    endloop
  endfacet
  facet normal 0 1 -0
    outer loop
      vertex 19.9271 -2.85317 2
      vertex 18.0729 -2.85317 5
      vertex 19.9271 -2.85317 5
    endloop
  endfacet
  facet normal 0 1 0
    outer loop
      vertex 18.0729 -2.85317 5
      vertex 19.9271 -2.85317 2
      vertex 18.0729 -2.85317 2
    endloop
  endfacet
  facet normal -0.951057 0.309017 0
    outer loop
      vertex 21.4271 -1.76336 2
      vertex 22 0 5
      vertex 22 0 2
    endloop
  endfacet
  facet normal -0.951057 0.309017 0
    outer loop
      vertex 22 0 5
      vertex 21.4271 -1.76336 2
      vertex 21.4271 -1.76336 5
    endloop
  endfacet
  facet normal 0.951057 0.309017 0
    outer loop
      vertex 16.5729 -1.76336 5
      vertex 16 0 2
      vertex 16 0 5
    endloop
  endfacet
  facet normal 0.951057 0.309017 0
    outer loop
      vertex 16 0 2
      vertex 16.5729 -1.76336 5
      vertex 16.5729 -1.76336 2
    endloop
  endfacet
  facet normal 0 -1 0
    outer loop
      vertex 18.125 1.51554 0
      vertex 19.875 1.51554 2
      vertex 18.125 1.51554 2
    endloop
  endfacet
  facet normal 0 -1 -0
    outer loop
      vertex 19.875 1.51554 2
      vertex 18.125 1.51554 0
      vertex 19.875 1.51554 0
    endloop
  endfacet
  facet normal -0.866025 -0.5 0
    outer loop
      vertex 20.75 0 0
      vertex 19.875 1.51554 2
      vertex 19.875 1.51554 0
    endloop
  endfacet
  facet normal -0.866025 -0.5 0
    outer loop
      vertex 19.875 1.51554 2
      vertex 20.75 0 0
      vertex 20.75 0 2
    endloop
  endfacet
  facet normal 0 1 -0
    outer loop
      vertex 19.875 -1.51554 0
      vertex 18.125 -1.51554 2
      vertex 19.875 -1.51554 2
    endloop
  endfacet
  facet normal 0 1 0
    outer loop
      vertex 18.125 -1.51554 2
      vertex 19.875 -1.51554 0
      vertex 18.125 -1.51554 0
    endloop
  endfacet
  facet normal 0.866025 -0.5 0
    outer loop
      vertex 17.25 0 2
      vertex 18.125 1.51554 0
      vertex 18.125 1.51554 2
    endloop
  endfacet
  facet normal 0.866025 -0.5 0
    outer loop
      vertex 18.125 1.51554 0
      vertex 17.25 0 2
      vertex 17.25 0 0
    endloop
  endfacet
  facet normal -0.866025 0.5 0
    outer loop
      vertex 19.875 -1.51554 0
      vertex 20.75 0 2
      vertex 20.75 0 0
    endloop
  endfacet
  facet normal -0.866025 0.5 0
    outer loop
      vertex 20.75 0 2
      vertex 19.875 -1.51554 0
      vertex 19.875 -1.51554 2
    endloop
  endfacet
  facet normal 0.866025 0.5 0
    outer loop
      vertex 18.125 -1.51554 2
      vertex 17.25 0 0
      vertex 17.25 0 2
    endloop
  endfacet
  facet normal 0.866025 0.5 0
    outer loop
      vertex 17.25 0 0
      vertex 18.125 -1.51554 2
      vertex 18.125 -1.51554 0
    endloop
  endfacet
  facet normal -0.748511 -0.663123 0
    outer loop
      vertex 3.54182 12.8589 0
      vertex 2.27226 14.2919 5
      vertex 2.27226 14.2919 0
    endloop
  endfacet
  facet normal -0.748511 -0.663123 0
    outer loop
      vertex 2.27226 14.2919 5
      vertex 3.54182 12.8589 0
      vertex 3.54182 12.8589 5
    endloop
  endfacet
  facet normal 0.120537 -0.992709 0
    outer loop
      vertex -1.41842 14.7401 0
      vertex 0.482146 14.9708 5
      vertex -1.41842 14.7401 5
    endloop
  endfacet
  facet normal 0.120537 -0.992709 0
    outer loop
      vertex 0.482146 14.9708 5
      vertex -1.41842 14.7401 0
      vertex 0.482146 14.9708 0
    endloop
  endfacet
  facet normal -0.970942 -0.239316 0
    outer loop
      vertex 4 11 0
      vertex 3.54182 12.8589 5
      vertex 3.54182 12.8589 0
    endloop
  endfacet
  facet normal -0.970942 -0.239316 0
    outer loop
      vertex 3.54182 12.8589 5
      vertex 4 11 0
      vertex 4 11 5
    endloop
  endfacet
  facet normal -0.354605 -0.935016 0
    outer loop
      vertex 0.482146 14.9708 0
      vertex 2.27226 14.2919 5
      vertex 0.482146 14.9708 5
    endloop
  endfacet
  facet normal -0.354605 -0.935016 -0
    outer loop
      vertex 2.27226 14.2919 5
      vertex 0.482146 14.9708 0
      vertex 2.27226 14.2919 0
    endloop
  endfacet
  facet normal 0.120537 0.992709 -0
    outer loop
      vertex 0.482146 7.02916 0
      vertex -1.41842 7.25993 5
      vertex 0.482146 7.02916 5
    endloop
  endfacet
  facet normal 0.120537 0.992709 0
    outer loop
      vertex -1.41842 7.25993 5
      vertex 0.482146 7.02916 0
      vertex -1.41842 7.25993 0
    endloop
  endfacet
  facet normal 0.885456 0.464723 0
    outer loop
      vertex -2.99404 8.34751 5
      vertex -3.88377 10.0427 0
      vertex -3.88377 10.0427 5
    endloop
  endfacet
  facet normal 0.885456 0.464723 0
    outer loop
      vertex -3.88377 10.0427 0
      vertex -2.99404 8.34751 5
      vertex -2.99404 8.34751 0
    endloop
  endfacet
  facet normal 0.568065 0.822984 -0
    outer loop
      vertex -1.41842 7.25993 0
      vertex -2.99404 8.34751 5
      vertex -1.41842 7.25993 5
    endloop
  endfacet
  facet normal 0.568065 0.822984 0
    outer loop
      vertex -2.99404 8.34751 5
      vertex -1.41842 7.25993 0
      vertex -2.99404 8.34751 0
    endloop
  endfacet
  facet normal -0.748511 0.663123 0
    outer loop
      vertex 2.27226 7.70806 0
      vertex 3.54182 9.14111 5
      vertex 3.54182 9.14111 0
    endloop
  endfacet
  facet normal -0.748511 0.663123 0
    outer loop
      vertex 3.54182 9.14111 5
      vertex 2.27226 7.70806 0
      vertex 2.27226 7.70806 5
    endloop
  endfacet
  facet normal -0.970942 0.239316 0
    outer loop
      vertex 3.54182 9.14111 0
      vertex 4 11 5
      vertex 4 11 0
    endloop
  endfacet
  facet normal -0.970942 0.239316 0
    outer loop
      vertex 4 11 5
      vertex 3.54182 9.14111 0
      vertex 3.54182 9.14111 5
    endloop
  endfacet
  facet normal 0.885456 -0.464723 0
    outer loop
      vertex -3.88377 11.9573 5
      vertex -2.99404 13.6525 0
      vertex -2.99404 13.6525 5
    endloop
  endfacet
  facet normal 0.885456 -0.464723 0
    outer loop
      vertex -2.99404 13.6525 0
      vertex -3.88377 11.9573 5
      vertex -3.88377 11.9573 0
    endloop
  endfacet
  facet normal 0.568065 -0.822984 0
    outer loop
      vertex -2.99404 13.6525 0
      vertex -1.41842 14.7401 5
      vertex -2.99404 13.6525 5
    endloop
  endfacet
  facet normal 0.568065 -0.822984 0
    outer loop
      vertex -1.41842 14.7401 5
      vertex -2.99404 13.6525 0
      vertex -1.41842 14.7401 0
    endloop
  endfacet
  facet normal -0.354605 0.935016 0
    outer loop
      vertex 2.27226 7.70806 0
      vertex 0.482146 7.02916 5
      vertex 2.27226 7.70806 5
    endloop
  endfacet
  facet normal -0.354605 0.935016 0
    outer loop
      vertex 0.482146 7.02916 5
      vertex 2.27226 7.70806 0
      vertex 0.482146 7.02916 0
    endloop
  endfacet
  facet normal 1 -0 0
    outer loop
      vertex -3.88377 10.0427 5
      vertex -3.88377 11.9573 0
      vertex -3.88377 11.9573 5
    endloop
  endfacet
  facet normal 1 0 0
    outer loop
      vertex -3.88377 11.9573 0
      vertex -3.88377 10.0427 5
      vertex -3.88377 10.0427 0
    endloop
  endfacet
  facet normal -0.748511 -0.663123 0
    outer loop
      vertex 3.54182 -9.14111 0
      vertex 2.27226 -7.70806 5
      vertex 2.27226 -7.70806 0
    endloop
  endfacet
  facet normal -0.748511 -0.663123 0
    outer loop
      vertex 2.27226 -7.70806 5
      vertex 3.54182 -9.14111 0
      vertex 3.54182 -9.14111 5
    endloop
  endfacet
  facet normal 0.120537 -0.992709 0
    outer loop
      vertex -1.41842 -7.25993 0
      vertex 0.482146 -7.02916 5
      vertex -1.41842 -7.25993 5
    endloop
  endfacet
  facet normal 0.120537 -0.992709 0
    outer loop
      vertex 0.482146 -7.02916 5
      vertex -1.41842 -7.25993 0
      vertex 0.482146 -7.02916 0
    endloop
  endfacet
  facet normal -0.970942 -0.239316 0
    outer loop
      vertex 4 -11 0
      vertex 3.54182 -9.14111 5
      vertex 3.54182 -9.14111 0
    endloop
  endfacet
  facet normal -0.970942 -0.239316 0
    outer loop
      vertex 3.54182 -9.14111 5
      vertex 4 -11 0
      vertex 4 -11 5
    endloop
  endfacet
  facet normal -0.354605 -0.935016 0
    outer loop
      vertex 0.482146 -7.02916 0
      vertex 2.27226 -7.70806 5
      vertex 0.482146 -7.02916 5
    endloop
  endfacet
  facet normal -0.354605 -0.935016 -0
    outer loop
      vertex 2.27226 -7.70806 5
      vertex 0.482146 -7.02916 0
      vertex 2.27226 -7.70806 0
    endloop
  endfacet
  facet normal 0.120537 0.992709 -0
    outer loop
      vertex 0.482146 -14.9708 0
      vertex -1.41842 -14.7401 5
      vertex 0.482146 -14.9708 5
    endloop
  endfacet
  facet normal 0.120537 0.992709 0
    outer loop
      vertex -1.41842 -14.7401 5
      vertex 0.482146 -14.9708 0
      vertex -1.41842 -14.7401 0
    endloop
  endfacet
  facet normal 0.885456 0.464723 0
    outer loop
      vertex -2.99404 -13.6525 5
      vertex -3.88377 -11.9573 0
      vertex -3.88377 -11.9573 5
    endloop
  endfacet
  facet normal 0.885456 0.464723 0
    outer loop
      vertex -3.88377 -11.9573 0
      vertex -2.99404 -13.6525 5
      vertex -2.99404 -13.6525 0
    endloop
  endfacet
  facet normal -0.970942 0.239316 0
    outer loop
      vertex 3.54182 -12.8589 0
      vertex 4 -11 5
      vertex 4 -11 0
    endloop
  endfacet
  facet normal -0.970942 0.239316 0
    outer loop
      vertex 4 -11 5
      vertex 3.54182 -12.8589 0
      vertex 3.54182 -12.8589 5
    endloop
  endfacet
  facet normal 0.568065 0.822984 -0
    outer loop
      vertex -1.41842 -14.7401 0
      vertex -2.99404 -13.6525 5
      vertex -1.41842 -14.7401 5
    endloop
  endfacet
  facet normal 0.568065 0.822984 0
    outer loop
      vertex -2.99404 -13.6525 5
      vertex -1.41842 -14.7401 0
      vertex -2.99404 -13.6525 0
    endloop
  endfacet
  facet normal -0.748511 0.663123 0
    outer loop
      vertex 2.27226 -14.2919 0
      vertex 3.54182 -12.8589 5
      vertex 3.54182 -12.8589 0
    endloop
  endfacet
  facet normal -0.748511 0.663123 0
    outer loop
      vertex 3.54182 -12.8589 5
      vertex 2.27226 -14.2919 0
      vertex 2.27226 -14.2919 5
    endloop
  endfacet
  facet normal 0.885456 -0.464723 0
    outer loop
      vertex -3.88377 -10.0427 5
      vertex -2.99404 -8.34751 0
      vertex -2.99404 -8.34751 5
    endloop
  endfacet
  facet normal 0.885456 -0.464723 0
    outer loop
      vertex -2.99404 -8.34751 0
      vertex -3.88377 -10.0427 5
      vertex -3.88377 -10.0427 0
    endloop
  endfacet
  facet normal 0.568065 -0.822984 0
    outer loop
      vertex -2.99404 -8.34751 0
      vertex -1.41842 -7.25993 5
      vertex -2.99404 -8.34751 5
    endloop
  endfacet
  facet normal 0.568065 -0.822984 0
    outer loop
      vertex -1.41842 -7.25993 5
      vertex -2.99404 -8.34751 0
      vertex -1.41842 -7.25993 0
    endloop
  endfacet
  facet normal -0.354605 0.935016 0
    outer loop
      vertex 2.27226 -14.2919 0
      vertex 0.482146 -14.9708 5
      vertex 2.27226 -14.2919 5
    endloop
  endfacet
  facet normal -0.354605 0.935016 0
    outer loop
      vertex 0.482146 -14.9708 5
      vertex 2.27226 -14.2919 0
      vertex 0.482146 -14.9708 0
    endloop
  endfacet
  facet normal 1 -0 0
    outer loop
      vertex -3.88377 -11.9573 5
      vertex -3.88377 -10.0427 0
      vertex -3.88377 -10.0427 5
    endloop
  endfacet
  facet normal 1 0 0
    outer loop
      vertex -3.88377 -10.0427 0
      vertex -3.88377 -11.9573 5
      vertex -3.88377 -11.9573 0
    endloop
  endfacet
  facet normal 0 -1 0
    outer loop
      vertex -0.874999 1.51554 0
      vertex 0.875 1.51554 2
      vertex -0.874999 1.51554 2
    endloop
  endfacet
  facet normal 0 -1 -0
    outer loop
      vertex 0.875 1.51554 2
      vertex -0.874999 1.51554 0
      vertex 0.875 1.51554 0
    endloop
  endfacet
  facet normal -0.866025 -0.5 0
    outer loop
      vertex 1.75 0 0
      vertex 0.875 1.51554 2
      vertex 0.875 1.51554 0
    endloop
  endfacet
  facet normal -0.866025 -0.5 0
    outer loop
      vertex 0.875 1.51554 2
      vertex 1.75 0 0
      vertex 1.75 0 2
    endloop
  endfacet
  facet normal 0 1 -0
    outer loop
      vertex 0.875 -1.51554 0
      vertex -0.875 -1.51554 2
      vertex 0.875 -1.51554 2
    endloop
  endfacet
  facet normal 0 1 0
    outer loop
      vertex -0.875 -1.51554 2
      vertex 0.875 -1.51554 0
      vertex -0.875 -1.51554 0
    endloop
  endfacet
  facet normal 0.866025 -0.500001 0
    outer loop
      vertex -1.75 0 2
      vertex -0.874999 1.51554 0
      vertex -0.874999 1.51554 2
    endloop
  endfacet
  facet normal 0.866025 -0.500001 0
    outer loop
      vertex -0.874999 1.51554 0
      vertex -1.75 0 2
      vertex -1.75 0 0
    endloop
  endfacet
  facet normal -0.866025 0.5 0
    outer loop
      vertex 0.875 -1.51554 0
      vertex 1.75 0 2
      vertex 1.75 0 0
    endloop
  endfacet
  facet normal -0.866025 0.5 0
    outer loop
      vertex 1.75 0 2
      vertex 0.875 -1.51554 0
      vertex 0.875 -1.51554 2
    endloop
  endfacet
  facet normal 0.866025 0.5 0
    outer loop
      vertex -0.875 -1.51554 2
      vertex -1.75 0 0
      vertex -1.75 0 2
    endloop
  endfacet
  facet normal 0.866025 0.5 0
    outer loop
      vertex -1.75 0 0
      vertex -0.875 -1.51554 2
      vertex -0.875 -1.51554 0
    endloop
  endfacet
  facet normal -0.951056 0.309017 0
    outer loop
      vertex 2.42705 -1.76336 2
      vertex 3 0 5
      vertex 3 0 2
    endloop
  endfacet
  facet normal -0.951056 0.309017 0
    outer loop
      vertex 3 0 5
      vertex 2.42705 -1.76336 2
      vertex 2.42705 -1.76336 5
    endloop
  endfacet
  facet normal -0.587785 -0.809017 0
    outer loop
      vertex 0.927051 2.85317 2
      vertex 2.42705 1.76336 5
      vertex 0.927051 2.85317 5
    endloop
  endfacet
  facet normal -0.587785 -0.809017 -0
    outer loop
      vertex 2.42705 1.76336 5
      vertex 0.927051 2.85317 2
      vertex 2.42705 1.76336 2
    endloop
  endfacet
  facet normal 0.951056 0.309017 0
    outer loop
      vertex -2.42705 -1.76336 5
      vertex -3 0 2
      vertex -3 0 5
    endloop
  endfacet
  facet normal 0.951056 0.309017 0
    outer loop
      vertex -3 0 2
      vertex -2.42705 -1.76336 5
      vertex -2.42705 -1.76336 2
    endloop
  endfacet
  facet normal -0.951056 -0.309017 0
    outer loop
      vertex 3 0 2
      vertex 2.42705 1.76336 5
      vertex 2.42705 1.76336 2
    endloop
  endfacet
  facet normal -0.951056 -0.309017 0
    outer loop
      vertex 2.42705 1.76336 5
      vertex 3 0 2
      vertex 3 0 5
    endloop
  endfacet
  facet normal 0.587785 -0.809017 0
    outer loop
      vertex -2.42705 1.76336 2
      vertex -0.927051 2.85317 5
      vertex -2.42705 1.76336 5
    endloop
  endfacet
  facet normal 0.587785 -0.809017 0
    outer loop
      vertex -0.927051 2.85317 5
      vertex -2.42705 1.76336 2
      vertex -0.927051 2.85317 2
    endloop
  endfacet
  facet normal 0.587785 0.809017 -0
    outer loop
      vertex -0.927051 -2.85317 2
      vertex -2.42705 -1.76336 5
      vertex -0.927051 -2.85317 5
    endloop
  endfacet
  facet normal 0.587785 0.809017 0
    outer loop
      vertex -2.42705 -1.76336 5
      vertex -0.927051 -2.85317 2
      vertex -2.42705 -1.76336 2
    endloop
  endfacet
  facet normal -0.587785 0.809017 0
    outer loop
      vertex 2.42705 -1.76336 2
      vertex 0.927051 -2.85317 5
      vertex 2.42705 -1.76336 5
    endloop
  endfacet
  facet normal -0.587785 0.809017 0
    outer loop
      vertex 0.927051 -2.85317 5
      vertex 2.42705 -1.76336 2
      vertex 0.927051 -2.85317 2
    endloop
  endfacet
  facet normal 0.951056 -0.309017 0
    outer loop
      vertex -3 0 5
      vertex -2.42705 1.76336 2
      vertex -2.42705 1.76336 5
    endloop
  endfacet
  facet normal 0.951056 -0.309017 0
    outer loop
      vertex -2.42705 1.76336 2
      vertex -3 0 5
      vertex -3 0 2
    endloop
  endfacet
  facet normal 0 0 1
    outer loop
      vertex 1.75 0 2
      vertex 3 0 2
      vertex 2.42705 1.76336 2
    endloop
  endfacet
  facet normal 0 0 1
    outer loop
      vertex 3 0 2
      vertex 1.75 0 2
      vertex 2.42705 -1.76336 2
    endloop
  endfacet
  facet normal 0 0 1
    outer loop
      vertex 0.875 1.51554 2
      vertex 2.42705 1.76336 2
      vertex 0.927051 2.85317 2
    endloop
  endfacet
  facet normal 0 0 1
    outer loop
      vertex 2.42705 1.76336 2
      vertex 0.875 1.51554 2
      vertex 1.75 0 2
    endloop
  endfacet
  facet normal 0 0 1
    outer loop
      vertex 0.927051 2.85317 2
      vertex -0.874999 1.51554 2
      vertex 0.875 1.51554 2
    endloop
  endfacet
  facet normal -0 0 1
    outer loop
      vertex -0.927051 2.85317 2
      vertex -0.874999 1.51554 2
      vertex 0.927051 2.85317 2
    endloop
  endfacet
  facet normal -0 0 1
    outer loop
      vertex -2.42705 1.76336 2
      vertex -0.874999 1.51554 2
      vertex -0.927051 2.85317 2
    endloop
  endfacet
  facet normal 0 0 1
    outer loop
      vertex -0.874999 1.51554 2
      vertex -2.42705 1.76336 2
      vertex -1.75 0 2
    endloop
  endfacet
  facet normal -0 0 1
    outer loop
      vertex 0.875 -1.51554 2
      vertex 2.42705 -1.76336 2
      vertex 1.75 0 2
    endloop
  endfacet
  facet normal 0 0 1
    outer loop
      vertex 2.42705 -1.76336 2
      vertex 0.875 -1.51554 2
      vertex 0.927051 -2.85317 2
    endloop
  endfacet
  facet normal -0 0 1
    outer loop
      vertex -0.875 -1.51554 2
      vertex 0.927051 -2.85317 2
      vertex 0.875 -1.51554 2
    endloop
  endfacet
  facet normal 0 0 1
    outer loop
      vertex -0.875 -1.51554 2
      vertex -0.927051 -2.85317 2
      vertex 0.927051 -2.85317 2
    endloop
  endfacet
  facet normal 0 0 1
    outer loop
      vertex -2.42705 -1.76336 2
      vertex -0.875 -1.51554 2
      vertex -1.75 0 2
    endloop
  endfacet
  facet normal 0 0 1
    outer loop
      vertex -3 0 2
      vertex -1.75 0 2
      vertex -2.42705 1.76336 2
    endloop
  endfacet
  facet normal 0 0 1
    outer loop
      vertex -0.875 -1.51554 2
      vertex -2.42705 -1.76336 2
      vertex -0.927051 -2.85317 2
    endloop
  endfacet
  facet normal 0 0 1
    outer loop
      vertex -1.75 0 2
      vertex -3 0 2
      vertex -2.42705 -1.76336 2
    endloop
  endfacet
  facet normal 0 -1 0
    outer loop
      vertex -0.927051 2.85317 2
      vertex 0.927051 2.85317 5
      vertex -0.927051 2.85317 5
    endloop
  endfacet
  facet normal 0 -1 -0
    outer loop
      vertex 0.927051 2.85317 5
      vertex -0.927051 2.85317 2
      vertex 0.927051 2.85317 2
    endloop
  endfacet
  facet normal 0 1 -0
    outer loop
      vertex 0.927051 -2.85317 2
      vertex -0.927051 -2.85317 5
      vertex 0.927051 -2.85317 5
    endloop
  endfacet
  facet normal 0 1 0
    outer loop
      vertex -0.927051 -2.85317 5
      vertex 0.927051 -2.85317 2
      vertex -0.927051 -2.85317 2
    endloop
  endfacet
  facet normal 0 0 -1
    outer loop
      vertex 1.75 0 0
      vertex 17.25 0 0
      vertex 3.54182 -9.14111 0
    endloop
  endfacet
  facet normal 0 0 -1
    outer loop
      vertex 17.25 0 0
      vertex 3.54182 9.14111 0
      vertex 4 11 0
    endloop
  endfacet
  facet normal 0 0 -1
    outer loop
      vertex 1.75 0 0
      vertex 3.54182 -9.14111 0
      vertex 2.27226 -7.70806 0
    endloop
  endfacet
  facet normal 0 0 -1
    outer loop
      vertex 17.25 0 0
      vertex 1.75 0 0
      vertex 3.54182 9.14111 0
    endloop
  endfacet
  facet normal 0 0 -1
    outer loop
      vertex 3.54182 9.14111 0
      vertex 1.75 0 0
      vertex 2.27226 7.70806 0
    endloop
  endfacet
  facet normal 0 0 -1
    outer loop
      vertex 2.27226 -7.70806 0
      vertex 0.875 -1.51554 0
      vertex 1.75 0 0
    endloop
  endfacet
  facet normal 0 0 -1
    outer loop
      vertex 0.482146 -7.02916 0
      vertex 0.875 -1.51554 0
      vertex 2.27226 -7.70806 0
    endloop
  endfacet
  facet normal 0 0 -1
    outer loop
      vertex 0.482146 -7.02916 0
      vertex -0.875 -1.51554 0
      vertex 0.875 -1.51554 0
    endloop
  endfacet
  facet normal 0 0 -1
    outer loop
      vertex -1.41842 -7.25993 0
      vertex -0.875 -1.51554 0
      vertex 0.482146 -7.02916 0
    endloop
  endfacet
  facet normal 0 0 -1
    outer loop
      vertex -2.99404 -8.34751 0
      vertex -0.875 -1.51554 0
      vertex -1.41842 -7.25993 0
    endloop
  endfacet
  facet normal -0 0 -1
    outer loop
      vertex -0.875 -1.51554 0
      vertex -2.99404 -8.34751 0
      vertex -1.75 0 0
    endloop
  endfacet
  facet normal 0 0 -1
    outer loop
      vertex 26 -26 0
      vertex 20.75 0 0
      vertex 26 26 0
    endloop
  endfacet
  facet normal 0 0 -1
    outer loop
      vertex 26 -26 0
      vertex 19.875 -1.51554 0
      vertex 20.75 0 0
    endloop
  endfacet
  facet normal 0 0 -1
    outer loop
      vertex 26 -26 0
      vertex 18.125 -1.51554 0
      vertex 19.875 -1.51554 0
    endloop
  endfacet
  facet normal 0 0 -1
    outer loop
      vertex 4 -11 0
      vertex 18.125 -1.51554 0
      vertex 26 -26 0
    endloop
  endfacet
  facet normal 0 0 -1
    outer loop
      vertex 3.54182 -9.14111 0
      vertex 18.125 -1.51554 0
      vertex 4 -11 0
    endloop
  endfacet
  facet normal 0 0 -1
    outer loop
      vertex 26 -26 0
      vertex 3.54182 -12.8589 0
      vertex 4 -11 0
    endloop
  endfacet
  facet normal 0 0 -1
    outer loop
      vertex 26 -26 0
      vertex 2.27226 -14.2919 0
      vertex 3.54182 -12.8589 0
    endloop
  endfacet
  facet normal 0 0 -1
    outer loop
      vertex 26 -26 0
      vertex 0.482146 -14.9708 0
      vertex 2.27226 -14.2919 0
    endloop
  endfacet
  facet normal 0 0 -1
    outer loop
      vertex -26 -26 0
      vertex 0.482146 -14.9708 0
      vertex 26 -26 0
    endloop
  endfacet
  facet normal 0 0 -1
    outer loop
      vertex -26 -26 0
      vertex -3.88377 -10.0427 0
      vertex -3.88377 -11.9573 0
    endloop
  endfacet
  facet normal -0 0 -1
    outer loop
      vertex -3.88377 -10.0427 0
      vertex -26 -26 0
      vertex -3.88377 10.0427 0
    endloop
  endfacet
  facet normal 0 0 -1
    outer loop
      vertex -26 26 0
      vertex -3.88377 10.0427 0
      vertex -26 -26 0
    endloop
  endfacet
  facet normal -0 0 -1
    outer loop
      vertex -2.99404 -13.6525 0
      vertex -26 -26 0
      vertex -3.88377 -11.9573 0
    endloop
  endfacet
  facet normal -0 0 -1
    outer loop
      vertex -1.41842 -14.7401 0
      vertex -26 -26 0
      vertex -2.99404 -13.6525 0
    endloop
  endfacet
  facet normal -0 0 -1
    outer loop
      vertex 0.482146 -14.9708 0
      vertex -26 -26 0
      vertex -1.41842 -14.7401 0
    endloop
  endfacet
  facet normal 0 0 -1
    outer loop
      vertex 19.875 1.51554 0
      vertex 26 26 0
      vertex 20.75 0 0
    endloop
  endfacet
  facet normal 0 0 -1
    outer loop
      vertex 18.125 1.51554 0
      vertex 26 26 0
      vertex 19.875 1.51554 0
    endloop
  endfacet
  facet normal 0 0 -1
    outer loop
      vertex 4 11 0
      vertex 18.125 1.51554 0
      vertex 17.25 0 0
    endloop
  endfacet
  facet normal -0 0 -1
    outer loop
      vertex 18.125 -1.51554 0
      vertex 3.54182 -9.14111 0
      vertex 17.25 0 0
    endloop
  endfacet
  facet normal 0 0 -1
    outer loop
      vertex 18.125 1.51554 0
      vertex 4 11 0
      vertex 26 26 0
    endloop
  endfacet
  facet normal 0 0 -1
    outer loop
      vertex 3.54182 12.8589 0
      vertex 26 26 0
      vertex 4 11 0
    endloop
  endfacet
  facet normal 0 0 -1
    outer loop
      vertex 2.27226 14.2919 0
      vertex 26 26 0
      vertex 3.54182 12.8589 0
    endloop
  endfacet
  facet normal 0 0 -1
    outer loop
      vertex 0.482146 14.9708 0
      vertex 26 26 0
      vertex 2.27226 14.2919 0
    endloop
  endfacet
  facet normal 0 0 -1
    outer loop
      vertex -26 26 0
      vertex 0.482146 14.9708 0
      vertex -1.41842 14.7401 0
    endloop
  endfacet
  facet normal 0 0 -1
    outer loop
      vertex -3.88377 10.0427 0
      vertex -26 26 0
      vertex -3.88377 11.9573 0
    endloop
  endfacet
  facet normal 0 0 -1
    outer loop
      vertex 0.482146 14.9708 0
      vertex -26 26 0
      vertex 26 26 0
    endloop
  endfacet
  facet normal 0 0 -1
    outer loop
      vertex -2.99404 13.6525 0
      vertex -26 26 0
      vertex -1.41842 14.7401 0
    endloop
  endfacet
  facet normal 0 0 -1
    outer loop
      vertex -3.88377 11.9573 0
      vertex -26 26 0
      vertex -2.99404 13.6525 0
    endloop
  endfacet
  facet normal 0 0 -1
    outer loop
      vertex 0.875 1.51554 0
      vertex 2.27226 7.70806 0
      vertex 1.75 0 0
    endloop
  endfacet
  facet normal 0 0 -1
    outer loop
      vertex 0.875 1.51554 0
      vertex 0.482146 7.02916 0
      vertex 2.27226 7.70806 0
    endloop
  endfacet
  facet normal 0 0 -1
    outer loop
      vertex -0.874999 1.51554 0
      vertex 0.482146 7.02916 0
      vertex 0.875 1.51554 0
    endloop
  endfacet
  facet normal 0 0 -1
    outer loop
      vertex -0.874999 1.51554 0
      vertex -1.41842 7.25993 0
      vertex 0.482146 7.02916 0
    endloop
  endfacet
  facet normal 0 0 -1
    outer loop
      vertex -2.99404 8.34751 0
      vertex -0.874999 1.51554 0
      vertex -1.75 0 0
    endloop
  endfacet
  facet normal 0 0 -1
    outer loop
      vertex -3.88377 -10.0427 0
      vertex -1.75 0 0
      vertex -2.99404 -8.34751 0
    endloop
  endfacet
  facet normal 0 0 -1
    outer loop
      vertex -0.874999 1.51554 0
      vertex -2.99404 8.34751 0
      vertex -1.41842 7.25993 0
    endloop
  endfacet
  facet normal 0 0 -1
    outer loop
      vertex -3.88377 10.0427 0
      vertex -1.75 0 0
      vertex -3.88377 -10.0427 0
    endloop
  endfacet
  facet normal 0 0 -1
    outer loop
      vertex -1.75 0 0
      vertex -3.88377 10.0427 0
      vertex -2.99404 8.34751 0
    endloop
  endfacet
  facet normal 1 -0 0
    outer loop
      vertex 26 -26 5
      vertex 26 26 0
      vertex 26 26 5
    endloop
  endfacet
  facet normal 1 0 0
    outer loop
      vertex 26 26 0
      vertex 26 -26 5
      vertex 26 -26 0
    endloop
  endfacet
  facet normal -1 0 0
    outer loop
      vertex -26 -26 0
      vertex -26 26 5
      vertex -26 26 0
    endloop
  endfacet
  facet normal -1 -0 0
    outer loop
      vertex -26 26 5
      vertex -26 -26 0
      vertex -26 -26 5
    endloop
  endfacet
  facet normal 0 -1 0
    outer loop
      vertex -26 -26 0
      vertex 26 -26 5
      vertex -26 -26 5
    endloop
  endfacet
  facet normal 0 -1 -0
    outer loop
      vertex 26 -26 5
      vertex -26 -26 0
      vertex 26 -26 0
    endloop
  endfacet
  facet normal 0 1 -0
    outer loop
      vertex 26 26 0
      vertex -26 26 5
      vertex 26 26 5
    endloop
  endfacet
  facet normal 0 1 0
    outer loop
      vertex -26 26 5
      vertex 26 26 0
      vertex -26 26 0
    endloop
  endfacet
  facet normal 0 0 1
    outer loop
      vertex 16.5729 1.76336 5
      vertex 2.42705 1.76336 5
      vertex 16 0 5
    endloop
  endfacet
  facet normal 0 0 1
    outer loop
      vertex 2.42705 -1.76336 5
      vertex 16 0 5
      vertex 3 0 5
    endloop
  endfacet
  facet normal 0 0 1
    outer loop
      vertex 16 0 5
      vertex 3.54182 -9.14111 5
      vertex 4 -11 5
    endloop
  endfacet
  facet normal 0 0 1
    outer loop
      vertex 16 0 5
      vertex 2.42705 1.76336 5
      vertex 3 0 5
    endloop
  endfacet
  facet normal -0 0 1
    outer loop
      vertex 2.27226 7.70806 5
      vertex 2.42705 1.76336 5
      vertex 3.54182 9.14111 5
    endloop
  endfacet
  facet normal 0 0 1
    outer loop
      vertex 2.27226 7.70806 5
      vertex 0.927051 2.85317 5
      vertex 2.42705 1.76336 5
    endloop
  endfacet
  facet normal -0 0 1
    outer loop
      vertex 0.482146 7.02916 5
      vertex 0.927051 2.85317 5
      vertex 2.27226 7.70806 5
    endloop
  endfacet
  facet normal 0 0 1
    outer loop
      vertex 0.482146 7.02916 5
      vertex -0.927051 2.85317 5
      vertex 0.927051 2.85317 5
    endloop
  endfacet
  facet normal 0 0 1
    outer loop
      vertex -1.41842 7.25993 5
      vertex -0.927051 2.85317 5
      vertex 0.482146 7.02916 5
    endloop
  endfacet
  facet normal 0 0 1
    outer loop
      vertex -1.41842 7.25993 5
      vertex -2.42705 1.76336 5
      vertex -0.927051 2.85317 5
    endloop
  endfacet
  facet normal 0 0 1
    outer loop
      vertex -2.99404 8.34751 5
      vertex -2.42705 1.76336 5
      vertex -1.41842 7.25993 5
    endloop
  endfacet
  facet normal 0 0 1
    outer loop
      vertex -2.99404 8.34751 5
      vertex -3 0 5
      vertex -2.42705 1.76336 5
    endloop
  endfacet
  facet normal 0 -0 1
    outer loop
      vertex -3 0 5
      vertex -2.99404 8.34751 5
      vertex -3.88377 10.0427 5
    endloop
  endfacet
  facet normal 0 0 1
    outer loop
      vertex 26 26 5
      vertex 22 0 5
      vertex 26 -26 5
    endloop
  endfacet
  facet normal 0 0 1
    outer loop
      vertex 26 26 5
      vertex 21.4271 1.76336 5
      vertex 22 0 5
    endloop
  endfacet
  facet normal 0 0 1
    outer loop
      vertex 26 26 5
      vertex 19.9271 2.85317 5
      vertex 21.4271 1.76336 5
    endloop
  endfacet
  facet normal 0 0 1
    outer loop
      vertex 26 26 5
      vertex 18.0729 2.85317 5
      vertex 19.9271 2.85317 5
    endloop
  endfacet
  facet normal -0 0 1
    outer loop
      vertex 3.54182 12.8589 5
      vertex 18.0729 2.85317 5
      vertex 26 26 5
    endloop
  endfacet
  facet normal -0 0 1
    outer loop
      vertex 3.54182 9.14111 5
      vertex 16.5729 1.76336 5
      vertex 4 11 5
    endloop
  endfacet
  facet normal -0 -0 1
    outer loop
      vertex 4 11 5
      vertex 18.0729 2.85317 5
      vertex 3.54182 12.8589 5
    endloop
  endfacet
  facet normal 0 0 1
    outer loop
      vertex 18.0729 2.85317 5
      vertex 4 11 5
      vertex 16.5729 1.76336 5
    endloop
  endfacet
  facet normal 0 0 1
    outer loop
      vertex 26 26 5
      vertex 2.27226 14.2919 5
      vertex 3.54182 12.8589 5
    endloop
  endfacet
  facet normal 0 0 1
    outer loop
      vertex 26 26 5
      vertex 0.482146 14.9708 5
      vertex 2.27226 14.2919 5
    endloop
  endfacet
  facet normal -0 0 1
    outer loop
      vertex -26 26 5
      vertex 0.482146 14.9708 5
      vertex 26 26 5
    endloop
  endfacet
  facet normal 0 0 1
    outer loop
      vertex -26 26 5
      vertex -3.88377 10.0427 5
      vertex -3.88377 11.9573 5
    endloop
  endfacet
  facet normal 0 0 1
    outer loop
      vertex -3.88377 10.0427 5
      vertex -26 26 5
      vertex -3.88377 -10.0427 5
    endloop
  endfacet
  facet normal 0 0 1
    outer loop
      vertex -26 -26 5
      vertex -3.88377 -10.0427 5
      vertex -26 26 5
    endloop
  endfacet
  facet normal 0 0 1
    outer loop
      vertex -2.99404 13.6525 5
      vertex -26 26 5
      vertex -3.88377 11.9573 5
    endloop
  endfacet
  facet normal 0 0 1
    outer loop
      vertex -1.41842 14.7401 5
      vertex -26 26 5
      vertex -2.99404 13.6525 5
    endloop
  endfacet
  facet normal 0 0 1
    outer loop
      vertex 0.482146 14.9708 5
      vertex -26 26 5
      vertex -1.41842 14.7401 5
    endloop
  endfacet
  facet normal -0 0 1
    outer loop
      vertex 21.4271 -1.76336 5
      vertex 26 -26 5
      vertex 22 0 5
    endloop
  endfacet
  facet normal -0 0 1
    outer loop
      vertex 19.9271 -2.85317 5
      vertex 26 -26 5
      vertex 21.4271 -1.76336 5
    endloop
  endfacet
  facet normal -0 0 1
    outer loop
      vertex 18.0729 -2.85317 5
      vertex 26 -26 5
      vertex 19.9271 -2.85317 5
    endloop
  endfacet
  facet normal 0 0 1
    outer loop
      vertex 4 -11 5
      vertex 18.0729 -2.85317 5
      vertex 16.5729 -1.76336 5
    endloop
  endfacet
  facet normal 0 0 1
    outer loop
      vertex 2.42705 1.76336 5
      vertex 16.5729 1.76336 5
      vertex 3.54182 9.14111 5
    endloop
  endfacet
  facet normal 0 0 1
    outer loop
      vertex 16 0 5
      vertex 4 -11 5
      vertex 16.5729 -1.76336 5
    endloop
  endfacet
  facet normal 0 0 1
    outer loop
      vertex 18.0729 -2.85317 5
      vertex 4 -11 5
      vertex 3.54182 -12.8589 5
    endloop
  endfacet
  facet normal 0 0 1
    outer loop
      vertex 18.0729 -2.85317 5
      vertex 3.54182 -12.8589 5
      vertex 26 -26 5
    endloop
  endfacet
  facet normal -0 0 1
    outer loop
      vertex 2.27226 -14.2919 5
      vertex 26 -26 5
      vertex 3.54182 -12.8589 5
    endloop
  endfacet
  facet normal -0 0 1
    outer loop
      vertex 0.482146 -14.9708 5
      vertex 26 -26 5
      vertex 2.27226 -14.2919 5
    endloop
  endfacet
  facet normal 0 0 1
    outer loop
      vertex -26 -26 5
      vertex 0.482146 -14.9708 5
      vertex -1.41842 -14.7401 5
    endloop
  endfacet
  facet normal 0 0 1
    outer loop
      vertex -3.88377 -10.0427 5
      vertex -26 -26 5
      vertex -3.88377 -11.9573 5
    endloop
  endfacet
  facet normal 0 0 1
    outer loop
      vertex 0.482146 -14.9708 5
      vertex -26 -26 5
      vertex 26 -26 5
    endloop
  endfacet
  facet normal 0 0 1
    outer loop
      vertex -2.99404 -13.6525 5
      vertex -26 -26 5
      vertex -1.41842 -14.7401 5
    endloop
  endfacet
  facet normal 0 0 1
    outer loop
      vertex -3.88377 -11.9573 5
      vertex -26 -26 5
      vertex -2.99404 -13.6525 5
    endloop
  endfacet
  facet normal 0 0 1
    outer loop
      vertex 16 0 5
      vertex 2.42705 -1.76336 5
      vertex 3.54182 -9.14111 5
    endloop
  endfacet
  facet normal 0 0 1
    outer loop
      vertex 2.42705 -1.76336 5
      vertex 2.27226 -7.70806 5
      vertex 3.54182 -9.14111 5
    endloop
  endfacet
  facet normal -0 0 1
    outer loop
      vertex 0.927051 -2.85317 5
      vertex 2.27226 -7.70806 5
      vertex 2.42705 -1.76336 5
    endloop
  endfacet
  facet normal 0 0 1
    outer loop
      vertex 0.927051 -2.85317 5
      vertex 0.482146 -7.02916 5
      vertex 2.27226 -7.70806 5
    endloop
  endfacet
  facet normal -0 0 1
    outer loop
      vertex -0.927051 -2.85317 5
      vertex 0.482146 -7.02916 5
      vertex 0.927051 -2.85317 5
    endloop
  endfacet
  facet normal 0 0 1
    outer loop
      vertex -0.927051 -2.85317 5
      vertex -1.41842 -7.25993 5
      vertex 0.482146 -7.02916 5
    endloop
  endfacet
  facet normal 0 0 1
    outer loop
      vertex -2.42705 -1.76336 5
      vertex -1.41842 -7.25993 5
      vertex -0.927051 -2.85317 5
    endloop
  endfacet
  facet normal 0 0 1
    outer loop
      vertex -2.42705 -1.76336 5
      vertex -2.99404 -8.34751 5
      vertex -1.41842 -7.25993 5
    endloop
  endfacet
  facet normal 0 0 1
    outer loop
      vertex -3 0 5
      vertex -2.99404 -8.34751 5
      vertex -2.42705 -1.76336 5
    endloop
  endfacet
  facet normal 0 0 1
    outer loop
      vertex -3.88377 -10.0427 5
      vertex -3 0 5
      vertex -3.88377 10.0427 5
    endloop
  endfacet
  facet normal 0 0 1
    outer loop
      vertex -3 0 5
      vertex -3.88377 -10.0427 5
      vertex -2.99404 -8.34751 5
    endloop
  endfacet
endsolid OpenSCAD_Model
