solid OpenSCAD_Model
  facet normal 0 0 -1
    outer loop
      vertex 3.54182 -0.358892 0
      vertex 40 -40 0
      vertex 3.54182 -19.6411 0
    endloop
  endfacet
  facet normal 0 0 -1
    outer loop
      vertex 40 -40 0
      vertex 3.54182 -0.358892 0
      vertex 4 1.5 0
    endloop
  endfacet
  facet normal 0 0 -1
    outer loop
      vertex 2.27226 -18.2081 0
      vertex 3.54182 -0.358892 0
      vertex 3.54182 -19.6411 0
    endloop
  endfacet
  facet normal 0 0 -1
    outer loop
      vertex 2.27226 -18.2081 0
      vertex 2.27226 -1.79193 0
      vertex 3.54182 -0.358892 0
    endloop
  endfacet
  facet normal 0 0 -1
    outer loop
      vertex 0.482146 -17.5292 0
      vertex 2.27226 -1.79193 0
      vertex 2.27226 -18.2081 0
    endloop
  endfacet
  facet normal 0 0 -1
    outer loop
      vertex 0.482146 -17.5292 0
      vertex 0.482146 -2.47083 0
      vertex 2.27226 -1.79193 0
    endloop
  endfacet
  facet normal 0 0 -1
    outer loop
      vertex -1.41842 -17.7599 0
      vertex 0.482146 -2.47083 0
      vertex 0.482146 -17.5292 0
    endloop
  endfacet
  facet normal 0 0 -1
    outer loop
      vertex -1.41842 -17.7599 0
      vertex -1.41842 -2.24006 0
      vertex 0.482146 -2.47083 0
    endloop
  endfacet
  facet normal 0 0 -1
    outer loop
      vertex -2.99404 -18.8475 0
      vertex -1.41842 -2.24006 0
      vertex -1.41842 -17.7599 0
    endloop
  endfacet
  facet normal 0 0 -1
    outer loop
      vertex -2.99404 -18.8475 0
      vertex -2.99404 -1.15249 0
      vertex -1.41842 -2.24006 0
    endloop
  endfacet
  facet normal 0 0 -1
    outer loop
      vertex -3.88377 -20.5427 0
      vertex -2.99404 -1.15249 0
      vertex -2.99404 -18.8475 0
    endloop
  endfacet
  facet normal -0 0 -1
    outer loop
      vertex -2.99404 -1.15249 0
      vertex -3.88377 -20.5427 0
      vertex -3.88377 0.542737 0
    endloop
  endfacet
  facet normal 0 0 -1
    outer loop
      vertex 3.54182 -19.6411 0
      vertex 40 -40 0
      vertex 4 -21.5 0
    endloop
  endfacet
  facet normal 0 0 -1
    outer loop
      vertex 40 -40 0
      vertex 3.54182 -23.3589 0
      vertex 4 -21.5 0
    endloop
  endfacet
  facet normal 0 0 -1
    outer loop
      vertex 40 -40 0
      vertex 2.27226 -24.7919 0
      vertex 3.54182 -23.3589 0
    endloop
  endfacet
  facet normal 0 0 -1
    outer loop
      vertex 40 -40 0
      vertex 0.482146 -25.4708 0
      vertex 2.27226 -24.7919 0
    endloop
  endfacet
  facet normal 0 0 -1
    outer loop
      vertex -40 -40 0
      vertex 0.482146 -25.4708 0
      vertex 40 -40 0
    endloop
  endfacet
  facet normal 0 0 -1
    outer loop
      vertex -40 -40 0
      vertex -3.88377 -20.5427 0
      vertex -3.88377 -22.4573 0
    endloop
  endfacet
  facet normal -0 0 -1
    outer loop
      vertex -3.88377 -20.5427 0
      vertex -40 -40 0
      vertex -3.88377 0.542737 0
    endloop
  endfacet
  facet normal 0 0 -1
    outer loop
      vertex -40 40 0
      vertex -3.88377 0.542737 0
      vertex -40 -40 0
    endloop
  endfacet
  facet normal -0 0 -1
    outer loop
      vertex -2.99404 -24.1525 0
      vertex -40 -40 0
      vertex -3.88377 -22.4573 0
    endloop
  endfacet
  facet normal -0 0 -1
    outer loop
      vertex -1.41842 -25.2401 0
      vertex -40 -40 0
      vertex -2.99404 -24.1525 0
    endloop
  endfacet
  facet normal -0 0 -1
    outer loop
      vertex 0.482146 -25.4708 0
      vertex -40 -40 0
      vertex -1.41842 -25.2401 0
    endloop
  endfacet
  facet normal 0 0 -1
    outer loop
      vertex 40 -40 0
      vertex 4 1.5 0
      vertex 40 40 0
    endloop
  endfacet
  facet normal 0 0 -1
    outer loop
      vertex 3.54182 3.35889 0
      vertex 40 40 0
      vertex 4 1.5 0
    endloop
  endfacet
  facet normal 0 0 -1
    outer loop
      vertex 2.27226 4.79193 0
      vertex 40 40 0
      vertex 3.54182 3.35889 0
    endloop
  endfacet
  facet normal 0 0 -1
    outer loop
      vertex 0.482146 5.47083 0
      vertex 40 40 0
      vertex 2.27226 4.79193 0
    endloop
  endfacet
  facet normal 0 0 -1
    outer loop
      vertex -40 40 0
      vertex 0.482146 5.47083 0
      vertex -1.41842 5.24006 0
    endloop
  endfacet
  facet normal 0 0 -1
    outer loop
      vertex -40 40 0
      vertex -1.41842 5.24006 0
      vertex -2.99404 4.15249 0
    endloop
  endfacet
  facet normal 0 0 -1
    outer loop
      vertex -3.88377 0.542737 0
      vertex -40 40 0
      vertex -3.88377 2.45726 0
    endloop
  endfacet
  facet normal 0 0 -1
    outer loop
      vertex 0.482146 5.47083 0
      vertex -40 40 0
      vertex 40 40 0
    endloop
  endfacet
  facet normal 0 0 -1
    outer loop
      vertex -3.88377 2.45726 0
      vertex -40 40 0
      vertex -2.99404 4.15249 0
    endloop
  endfacet
  facet normal 0 1 -0
    outer loop
      vertex 40 40 0
      vertex -40 40 5
      vertex 40 40 5
    endloop
  endfacet
  facet normal 0 1 0
    outer loop
      vertex -40 40 5
      vertex 40 40 0
      vertex -40 40 0
    endloop
  endfacet
  facet normal 0 -1 0
    outer loop
      vertex -40 -40 0
      vertex 40 -40 5
      vertex -40 -40 5
    endloop
  endfacet
  facet normal 0 -1 -0
    outer loop
      vertex 40 -40 5
      vertex -40 -40 0
      vertex 40 -40 0
    endloop
  endfacet
  facet normal 1 -0 0
    outer loop
      vertex 40 -40 5
      vertex 40 40 0
      vertex 40 40 5
    endloop
  endfacet
  facet normal 1 0 0
    outer loop
      vertex 40 40 0
      vertex 40 -40 5
      vertex 40 -40 0
    endloop
  endfacet
  facet normal -1 0 0
    outer loop
      vertex -40 -40 0
      vertex -40 40 5
      vertex -40 40 0
    endloop
  endfacet
  facet normal -1 -0 0
    outer loop
      vertex -40 40 5
      vertex -40 -40 0
      vertex -40 -40 5
    endloop
  endfacet
  facet normal -0 0 1
    outer loop
      vertex -40 40 5
      vertex -26 35 5
      vertex -26 40 5
    endloop
  endfacet
  facet normal 0 0 1
    outer loop
      vertex -26 35 5
      vertex -40 40 5
      vertex -26 27 5
    endloop
  endfacet
  facet normal -0 0 1
    outer loop
      vertex 3.54182 -19.6411 5
      vertex 40 -40 5
      vertex 3.54182 -0.358892 5
    endloop
  endfacet
  facet normal 0 0 1
    outer loop
      vertex 40 -40 5
      vertex 3.54182 -19.6411 5
      vertex 4 -21.5 5
    endloop
  endfacet
  facet normal -0 0 1
    outer loop
      vertex 2.27226 -1.79193 5
      vertex 3.54182 -19.6411 5
      vertex 3.54182 -0.358892 5
    endloop
  endfacet
  facet normal 0 0 1
    outer loop
      vertex 2.27226 -1.79193 5
      vertex 2.27226 -18.2081 5
      vertex 3.54182 -19.6411 5
    endloop
  endfacet
  facet normal -0 0 1
    outer loop
      vertex 0.482146 -2.47083 5
      vertex 2.27226 -18.2081 5
      vertex 2.27226 -1.79193 5
    endloop
  endfacet
  facet normal 0 0 1
    outer loop
      vertex 0.482146 -2.47083 5
      vertex 0.482146 -17.5292 5
      vertex 2.27226 -18.2081 5
    endloop
  endfacet
  facet normal 0 0 1
    outer loop
      vertex -1.41842 -2.24006 5
      vertex 0.482146 -17.5292 5
      vertex 0.482146 -2.47083 5
    endloop
  endfacet
  facet normal 0 0 1
    outer loop
      vertex -1.41842 -2.24006 5
      vertex -1.41842 -17.7599 5
      vertex 0.482146 -17.5292 5
    endloop
  endfacet
  facet normal 0 0 1
    outer loop
      vertex -2.99404 -1.15249 5
      vertex -1.41842 -17.7599 5
      vertex -1.41842 -2.24006 5
    endloop
  endfacet
  facet normal 0 0 1
    outer loop
      vertex -2.99404 -1.15249 5
      vertex -2.99404 -18.8475 5
      vertex -1.41842 -17.7599 5
    endloop
  endfacet
  facet normal 0 0 1
    outer loop
      vertex -3.88377 0.542737 5
      vertex -2.99404 -18.8475 5
      vertex -2.99404 -1.15249 5
    endloop
  endfacet
  facet normal 0 0 1
    outer loop
      vertex -2.99404 -18.8475 5
      vertex -3.88377 0.542737 5
      vertex -3.88377 -20.5427 5
    endloop
  endfacet
  facet normal 0 0 1
    outer loop
      vertex -23 27 5
      vertex 23 27 5
      vertex 23 35 5
    endloop
  endfacet
  facet normal 0 0 1
    outer loop
      vertex 23 27 5
      vertex 3.54182 3.35889 5
      vertex 4 1.5 5
    endloop
  endfacet
  facet normal 0 0 1
    outer loop
      vertex 23 27 5
      vertex 2.27226 4.79193 5
      vertex 3.54182 3.35889 5
    endloop
  endfacet
  facet normal 0 0 1
    outer loop
      vertex 23 27 5
      vertex 0.482146 5.47083 5
      vertex 2.27226 4.79193 5
    endloop
  endfacet
  facet normal 0 0 1
    outer loop
      vertex 23 27 5
      vertex -23 27 5
      vertex 0.482146 5.47083 5
    endloop
  endfacet
  facet normal 0 0 1
    outer loop
      vertex 0.482146 5.47083 5
      vertex -23 27 5
      vertex -1.41842 5.24006 5
    endloop
  endfacet
  facet normal 0 0 1
    outer loop
      vertex -26 27 5
      vertex -3.88377 0.542737 5
      vertex -3.88377 2.45726 5
    endloop
  endfacet
  facet normal 0 0 1
    outer loop
      vertex -3.88377 0.542737 5
      vertex -40 -40 5
      vertex -3.88377 -20.5427 5
    endloop
  endfacet
  facet normal 0 0 1
    outer loop
      vertex -2.99404 4.15249 5
      vertex -23 27 5
      vertex -3.88377 2.45726 5
    endloop
  endfacet
  facet normal 0 0 1
    outer loop
      vertex -1.41842 5.24006 5
      vertex -23 27 5
      vertex -2.99404 4.15249 5
    endloop
  endfacet
  facet normal 0 0 1
    outer loop
      vertex -23 27 5
      vertex 23 35 5
      vertex -23 35 5
    endloop
  endfacet
  facet normal 0 0 1
    outer loop
      vertex 26 35 5
      vertex 40 40 5
      vertex 26 40 5
    endloop
  endfacet
  facet normal 0 0 1
    outer loop
      vertex 26 27 5
      vertex 40 40 5
      vertex 26 35 5
    endloop
  endfacet
  facet normal 0 0 1
    outer loop
      vertex 40 40 5
      vertex 26 27 5
      vertex 40 -40 5
    endloop
  endfacet
  facet normal 0 0 1
    outer loop
      vertex 4 1.5 5
      vertex 26 27 5
      vertex 23 27 5
    endloop
  endfacet
  facet normal 0 0 1
    outer loop
      vertex 26 27 5
      vertex 4 1.5 5
      vertex 40 -40 5
    endloop
  endfacet
  facet normal -0 0 1
    outer loop
      vertex 3.54182 -0.358892 5
      vertex 40 -40 5
      vertex 4 1.5 5
    endloop
  endfacet
  facet normal -0 0 1
    outer loop
      vertex 3.54182 -23.3589 5
      vertex 40 -40 5
      vertex 4 -21.5 5
    endloop
  endfacet
  facet normal -0 0 1
    outer loop
      vertex 2.27226 -24.7919 5
      vertex 40 -40 5
      vertex 3.54182 -23.3589 5
    endloop
  endfacet
  facet normal -0 0 1
    outer loop
      vertex 0.482146 -25.4708 5
      vertex 40 -40 5
      vertex 2.27226 -24.7919 5
    endloop
  endfacet
  facet normal 0 0 1
    outer loop
      vertex -40 -40 5
      vertex 0.482146 -25.4708 5
      vertex -1.41842 -25.2401 5
    endloop
  endfacet
  facet normal -0 0 1
    outer loop
      vertex -26 27 5
      vertex -3.88377 2.45726 5
      vertex -23 27 5
    endloop
  endfacet
  facet normal 0 0 1
    outer loop
      vertex -3.88377 0.542737 5
      vertex -26 27 5
      vertex -40 -40 5
    endloop
  endfacet
  facet normal 0 0 1
    outer loop
      vertex -40 -40 5
      vertex -26 27 5
      vertex -40 40 5
    endloop
  endfacet
  facet normal 0 0 1
    outer loop
      vertex -3.88377 -20.5427 5
      vertex -40 -40 5
      vertex -3.88377 -22.4573 5
    endloop
  endfacet
  facet normal 0 0 1
    outer loop
      vertex 0.482146 -25.4708 5
      vertex -40 -40 5
      vertex 40 -40 5
    endloop
  endfacet
  facet normal 0 0 1
    outer loop
      vertex -2.99404 -24.1525 5
      vertex -40 -40 5
      vertex -1.41842 -25.2401 5
    endloop
  endfacet
  facet normal 0 0 1
    outer loop
      vertex -3.88377 -22.4573 5
      vertex -40 -40 5
      vertex -2.99404 -24.1525 5
    endloop
  endfacet
  facet normal 0 0 0
    outer loop
      vertex 26 40 5
      vertex 40 40 5
      vertex -40 40 5
    endloop
  endfacet
  facet normal 0 0 0
    outer loop
      vertex -40 40 5
      vertex -26 40 5
      vertex 26 40 5
    endloop
  endfacet
  facet normal -0.748511 -0.663123 0
    outer loop
      vertex 3.54182 3.35889 0
      vertex 2.27226 4.79193 5
      vertex 2.27226 4.79193 0
    endloop
  endfacet
  facet normal -0.748511 -0.663123 0
    outer loop
      vertex 2.27226 4.79193 5
      vertex 3.54182 3.35889 0
      vertex 3.54182 3.35889 5
    endloop
  endfacet
  facet normal 0.120537 -0.992709 0
    outer loop
      vertex -1.41842 5.24006 0
      vertex 0.482146 5.47083 5
      vertex -1.41842 5.24006 5
    endloop
  endfacet
  facet normal 0.120537 -0.992709 0
    outer loop
      vertex 0.482146 5.47083 5
      vertex -1.41842 5.24006 0
      vertex 0.482146 5.47083 0
    endloop
  endfacet
  facet normal -0.970942 -0.239316 0
    outer loop
      vertex 4 1.5 0
      vertex 3.54182 3.35889 5
      vertex 3.54182 3.35889 0
    endloop
  endfacet
  facet normal -0.970942 -0.239316 0
    outer loop
      vertex 3.54182 3.35889 5
      vertex 4 1.5 0
      vertex 4 1.5 5
    endloop
  endfacet
  facet normal -0.354605 -0.935016 0
    outer loop
      vertex 0.482146 5.47083 0
      vertex 2.27226 4.79193 5
      vertex 0.482146 5.47083 5
    endloop
  endfacet
  facet normal -0.354605 -0.935016 -0
    outer loop
      vertex 2.27226 4.79193 5
      vertex 0.482146 5.47083 0
      vertex 2.27226 4.79193 0
    endloop
  endfacet
  facet normal 0.120537 0.992709 -0
    outer loop
      vertex 0.482146 -2.47083 0
      vertex -1.41842 -2.24006 5
      vertex 0.482146 -2.47083 5
    endloop
  endfacet
  facet normal 0.120537 0.992709 0
    outer loop
      vertex -1.41842 -2.24006 5
      vertex 0.482146 -2.47083 0
      vertex -1.41842 -2.24006 0
    endloop
  endfacet
  facet normal 1 -0 0
    outer loop
      vertex -3.88377 0.542737 5
      vertex -3.88377 2.45726 0
      vertex -3.88377 2.45726 5
    endloop
  endfacet
  facet normal 1 0 0
    outer loop
      vertex -3.88377 2.45726 0
      vertex -3.88377 0.542737 5
      vertex -3.88377 0.542737 0
    endloop
  endfacet
  facet normal -0.748511 0.663123 0
    outer loop
      vertex 2.27226 -1.79193 0
      vertex 3.54182 -0.358892 5
      vertex 3.54182 -0.358892 0
    endloop
  endfacet
  facet normal -0.748511 0.663123 0
    outer loop
      vertex 3.54182 -0.358892 5
      vertex 2.27226 -1.79193 0
      vertex 2.27226 -1.79193 5
    endloop
  endfacet
  facet normal 0.885456 0.464723 0
    outer loop
      vertex -2.99404 -1.15249 5
      vertex -3.88377 0.542737 0
      vertex -3.88377 0.542737 5
    endloop
  endfacet
  facet normal 0.885456 0.464723 0
    outer loop
      vertex -3.88377 0.542737 0
      vertex -2.99404 -1.15249 5
      vertex -2.99404 -1.15249 0
    endloop
  endfacet
  facet normal -0.354605 0.935016 0
    outer loop
      vertex 2.27226 -1.79193 0
      vertex 0.482146 -2.47083 5
      vertex 2.27226 -1.79193 5
    endloop
  endfacet
  facet normal -0.354605 0.935016 0
    outer loop
      vertex 0.482146 -2.47083 5
      vertex 2.27226 -1.79193 0
      vertex 0.482146 -2.47083 0
    endloop
  endfacet
  facet normal 0.568065 0.822984 -0
    outer loop
      vertex -1.41842 -2.24006 0
      vertex -2.99404 -1.15249 5
      vertex -1.41842 -2.24006 5
    endloop
  endfacet
  facet normal 0.568065 0.822984 0
    outer loop
      vertex -2.99404 -1.15249 5
      vertex -1.41842 -2.24006 0
      vertex -2.99404 -1.15249 0
    endloop
  endfacet
  facet normal 0.885456 -0.464723 0
    outer loop
      vertex -3.88377 2.45726 5
      vertex -2.99404 4.15249 0
      vertex -2.99404 4.15249 5
    endloop
  endfacet
  facet normal 0.885456 -0.464723 0
    outer loop
      vertex -2.99404 4.15249 0
      vertex -3.88377 2.45726 5
      vertex -3.88377 2.45726 0
    endloop
  endfacet
  facet normal 0.568065 -0.822984 0
    outer loop
      vertex -2.99404 4.15249 0
      vertex -1.41842 5.24006 5
      vertex -2.99404 4.15249 5
    endloop
  endfacet
  facet normal 0.568065 -0.822984 0
    outer loop
      vertex -1.41842 5.24006 5
      vertex -2.99404 4.15249 0
      vertex -1.41842 5.24006 0
    endloop
  endfacet
  facet normal -0.970942 0.239316 0
    outer loop
      vertex 3.54182 -0.358892 0
      vertex 4 1.5 5
      vertex 4 1.5 0
    endloop
  endfacet
  facet normal -0.970942 0.239316 0
    outer loop
      vertex 4 1.5 5
      vertex 3.54182 -0.358892 0
      vertex 3.54182 -0.358892 5
    endloop
  endfacet
  facet normal -0.74851 -0.663123 0
    outer loop
      vertex 3.54182 -19.6411 0
      vertex 2.27226 -18.2081 5
      vertex 2.27226 -18.2081 0
    endloop
  endfacet
  facet normal -0.74851 -0.663123 0
    outer loop
      vertex 2.27226 -18.2081 5
      vertex 3.54182 -19.6411 0
      vertex 3.54182 -19.6411 5
    endloop
  endfacet
  facet normal 0.120537 -0.992709 0
    outer loop
      vertex -1.41842 -17.7599 0
      vertex 0.482146 -17.5292 5
      vertex -1.41842 -17.7599 5
    endloop
  endfacet
  facet normal 0.120537 -0.992709 0
    outer loop
      vertex 0.482146 -17.5292 5
      vertex -1.41842 -17.7599 0
      vertex 0.482146 -17.5292 0
    endloop
  endfacet
  facet normal -0.970942 -0.239316 0
    outer loop
      vertex 4 -21.5 0
      vertex 3.54182 -19.6411 5
      vertex 3.54182 -19.6411 0
    endloop
  endfacet
  facet normal -0.970942 -0.239316 0
    outer loop
      vertex 3.54182 -19.6411 5
      vertex 4 -21.5 0
      vertex 4 -21.5 5
    endloop
  endfacet
  facet normal -0.354606 -0.935016 0
    outer loop
      vertex 0.482146 -17.5292 0
      vertex 2.27226 -18.2081 5
      vertex 0.482146 -17.5292 5
    endloop
  endfacet
  facet normal -0.354606 -0.935016 -0
    outer loop
      vertex 2.27226 -18.2081 5
      vertex 0.482146 -17.5292 0
      vertex 2.27226 -18.2081 0
    endloop
  endfacet
  facet normal 0.885456 0.464723 0
    outer loop
      vertex -2.99404 -24.1525 5
      vertex -3.88377 -22.4573 0
      vertex -3.88377 -22.4573 5
    endloop
  endfacet
  facet normal 0.885456 0.464723 0
    outer loop
      vertex -3.88377 -22.4573 0
      vertex -2.99404 -24.1525 5
      vertex -2.99404 -24.1525 0
    endloop
  endfacet
  facet normal -0.970942 0.239316 0
    outer loop
      vertex 3.54182 -23.3589 0
      vertex 4 -21.5 5
      vertex 4 -21.5 0
    endloop
  endfacet
  facet normal -0.970942 0.239316 0
    outer loop
      vertex 4 -21.5 5
      vertex 3.54182 -23.3589 0
      vertex 3.54182 -23.3589 5
    endloop
  endfacet
  facet normal 0.568065 0.822984 -0
    outer loop
      vertex -1.41842 -25.2401 0
      vertex -2.99404 -24.1525 5
      vertex -1.41842 -25.2401 5
    endloop
  endfacet
  facet normal 0.568065 0.822984 0
    outer loop
      vertex -2.99404 -24.1525 5
      vertex -1.41842 -25.2401 0
      vertex -2.99404 -24.1525 0
    endloop
  endfacet
  facet normal -0.748511 0.663123 0
    outer loop
      vertex 2.27226 -24.7919 0
      vertex 3.54182 -23.3589 5
      vertex 3.54182 -23.3589 0
    endloop
  endfacet
  facet normal -0.748511 0.663123 0
    outer loop
      vertex 3.54182 -23.3589 5
      vertex 2.27226 -24.7919 0
      vertex 2.27226 -24.7919 5
    endloop
  endfacet
  facet normal 0.885456 -0.464723 0
    outer loop
      vertex -3.88377 -20.5427 5
      vertex -2.99404 -18.8475 0
      vertex -2.99404 -18.8475 5
    endloop
  endfacet
  facet normal 0.885456 -0.464723 0
    outer loop
      vertex -2.99404 -18.8475 0
      vertex -3.88377 -20.5427 5
      vertex -3.88377 -20.5427 0
    endloop
  endfacet
  facet normal 0.568065 -0.822984 0
    outer loop
      vertex -2.99404 -18.8475 0
      vertex -1.41842 -17.7599 5
      vertex -2.99404 -18.8475 5
    endloop
  endfacet
  facet normal 0.568065 -0.822984 0
    outer loop
      vertex -1.41842 -17.7599 5
      vertex -2.99404 -18.8475 0
      vertex -1.41842 -17.7599 0
    endloop
  endfacet
  facet normal -0.354605 0.935016 0
    outer loop
      vertex 2.27226 -24.7919 0
      vertex 0.482146 -25.4708 5
      vertex 2.27226 -24.7919 5
    endloop
  endfacet
  facet normal -0.354605 0.935016 0
    outer loop
      vertex 0.482146 -25.4708 5
      vertex 2.27226 -24.7919 0
      vertex 0.482146 -25.4708 0
    endloop
  endfacet
  facet normal 0.120537 0.992709 -0
    outer loop
      vertex 0.482146 -25.4708 0
      vertex -1.41842 -25.2401 5
      vertex 0.482146 -25.4708 5
    endloop
  endfacet
  facet normal 0.120537 0.992709 0
    outer loop
      vertex -1.41842 -25.2401 5
      vertex 0.482146 -25.4708 0
      vertex -1.41842 -25.2401 0
    endloop
  endfacet
  facet normal 1 -0 0
    outer loop
      vertex -3.88377 -22.4573 5
      vertex -3.88377 -20.5427 0
      vertex -3.88377 -20.5427 5
    endloop
  endfacet
  facet normal 1 0 0
    outer loop
      vertex -3.88377 -20.5427 0
      vertex -3.88377 -22.4573 5
      vertex -3.88377 -22.4573 0
    endloop
  endfacet
  facet normal -0.654861 0 -0.755749
    outer loop
      vertex 1.45395 37 49.1837
      vertex 2.94439 40 47.8922
      vertex 2.94439 37 47.8922
    endloop
  endfacet
  facet normal -0.654861 0 -0.755749
    outer loop
      vertex 2.94439 40 47.8922
      vertex 1.45395 37 49.1837
      vertex 1.45395 40 49.1837
    endloop
  endfacet
  facet normal -0.959493 0 -0.281733
    outer loop
      vertex 3.5 37 46
      vertex 2.94439 40 47.8922
      vertex 3.5 40 46
    endloop
  endfacet
  facet normal -0.959493 -0 -0.281733
    outer loop
      vertex 2.94439 40 47.8922
      vertex 3.5 37 46
      vertex 2.94439 37 47.8922
    endloop
  endfacet
  facet normal 0.415415 0 -0.909632
    outer loop
      vertex -2.29201 37 48.6451
      vertex -0.498101 40 49.4644
      vertex -0.498101 37 49.4644
    endloop
  endfacet
  facet normal 0.415415 0 -0.909632
    outer loop
      vertex -0.498101 40 49.4644
      vertex -2.29201 37 48.6451
      vertex -2.29201 40 48.6451
    endloop
  endfacet
  facet normal 0.415414 0 0.909633
    outer loop
      vertex -2.29201 40 43.3549
      vertex -0.498101 37 42.5356
      vertex -0.498101 40 42.5356
    endloop
  endfacet
  facet normal 0.415414 0 0.909633
    outer loop
      vertex -0.498101 37 42.5356
      vertex -2.29201 40 43.3549
      vertex -2.29201 37 43.3549
    endloop
  endfacet
  facet normal -0.142315 0 -0.989821
    outer loop
      vertex -0.498101 37 49.4644
      vertex 1.45395 40 49.1837
      vertex 1.45395 37 49.1837
    endloop
  endfacet
  facet normal -0.142315 0 -0.989821
    outer loop
      vertex 1.45395 40 49.1837
      vertex -0.498101 37 49.4644
      vertex -0.498101 40 49.4644
    endloop
  endfacet
  facet normal -0.142315 0 0.989821
    outer loop
      vertex -0.498101 40 42.5356
      vertex 1.45395 37 42.8163
      vertex 1.45395 40 42.8163
    endloop
  endfacet
  facet normal -0.142315 0 0.989821
    outer loop
      vertex 1.45395 37 42.8163
      vertex -0.498101 40 42.5356
      vertex -0.498101 37 42.5356
    endloop
  endfacet
  facet normal -0.654861 0 0.755749
    outer loop
      vertex 1.45395 40 42.8163
      vertex 2.94439 37 44.1078
      vertex 2.94439 40 44.1078
    endloop
  endfacet
  facet normal -0.654861 0 0.755749
    outer loop
      vertex 2.94439 37 44.1078
      vertex 1.45395 40 42.8163
      vertex 1.45395 37 42.8163
    endloop
  endfacet
  facet normal -0.959493 0 0.281733
    outer loop
      vertex 2.94439 37 44.1078
      vertex 3.5 40 46
      vertex 2.94439 40 44.1078
    endloop
  endfacet
  facet normal -0.959493 0 0.281733
    outer loop
      vertex 3.5 40 46
      vertex 2.94439 37 44.1078
      vertex 3.5 37 46
    endloop
  endfacet
  facet normal 0.841254 0 -0.54064
    outer loop
      vertex -2.29201 37 48.6451
      vertex -3.35822 40 46.9861
      vertex -2.29201 40 48.6451
    endloop
  endfacet
  facet normal 0.841254 0 -0.54064
    outer loop
      vertex -3.35822 40 46.9861
      vertex -2.29201 37 48.6451
      vertex -3.35822 37 46.9861
    endloop
  endfacet
  facet normal 0 1 0
    outer loop
      vertex 1.75 37 46
      vertex 2.94439 37 47.8922
      vertex 3.5 37 46
    endloop
  endfacet
  facet normal 0 1 0
    outer loop
      vertex 2.94439 37 47.8922
      vertex 1.75 37 46
      vertex 0.875 37 47.5155
    endloop
  endfacet
  facet normal 0 1 -0
    outer loop
      vertex 2.94439 37 44.1078
      vertex 1.75 37 46
      vertex 3.5 37 46
    endloop
  endfacet
  facet normal 0 1 -0
    outer loop
      vertex 1.45395 37 42.8163
      vertex 0.875 37 44.4845
      vertex 2.94439 37 44.1078
    endloop
  endfacet
  facet normal 0 1 0
    outer loop
      vertex 1.75 37 46
      vertex 2.94439 37 44.1078
      vertex 0.875 37 44.4845
    endloop
  endfacet
  facet normal 0 1 -0
    outer loop
      vertex 0.875 37 47.5155
      vertex -0.498101 37 49.4644
      vertex 1.45395 37 49.1837
    endloop
  endfacet
  facet normal 0 1 0
    outer loop
      vertex 0.875 37 47.5155
      vertex 1.45395 37 49.1837
      vertex 2.94439 37 47.8922
    endloop
  endfacet
  facet normal 0 1 0
    outer loop
      vertex -0.498101 37 49.4644
      vertex 0.875 37 47.5155
      vertex -0.874999 37 47.5155
    endloop
  endfacet
  facet normal 0 1 0
    outer loop
      vertex -0.498101 37 49.4644
      vertex -0.874999 37 47.5155
      vertex -2.29201 37 48.6451
    endloop
  endfacet
  facet normal 0 1 0
    outer loop
      vertex -0.874999 37 47.5155
      vertex -3.35822 37 46.9861
      vertex -2.29201 37 48.6451
    endloop
  endfacet
  facet normal 0 1 -0
    outer loop
      vertex -1.75 37 46
      vertex -3.35822 37 46.9861
      vertex -0.874999 37 47.5155
    endloop
  endfacet
  facet normal 0 1 0
    outer loop
      vertex -1.75 37 46
      vertex -3.35822 37 45.0139
      vertex -3.35822 37 46.9861
    endloop
  endfacet
  facet normal 0 1 0
    outer loop
      vertex -0.875 37 44.4845
      vertex -3.35822 37 45.0139
      vertex -1.75 37 46
    endloop
  endfacet
  facet normal 0 1 0
    outer loop
      vertex -0.875 37 44.4845
      vertex -2.29201 37 43.3549
      vertex -3.35822 37 45.0139
    endloop
  endfacet
  facet normal 0 1 0
    outer loop
      vertex -0.498101 37 42.5356
      vertex 0.875 37 44.4845
      vertex 1.45395 37 42.8163
    endloop
  endfacet
  facet normal 0 1 0
    outer loop
      vertex 0.875 37 44.4845
      vertex -0.498101 37 42.5356
      vertex -0.875 37 44.4845
    endloop
  endfacet
  facet normal 0 1 0
    outer loop
      vertex -0.875 37 44.4845
      vertex -0.498101 37 42.5356
      vertex -2.29201 37 43.3549
    endloop
  endfacet
  facet normal 1 -0 0
    outer loop
      vertex -3.35822 37 46.9861
      vertex -3.35822 40 45.0139
      vertex -3.35822 40 46.9861
    endloop
  endfacet
  facet normal 1 0 0
    outer loop
      vertex -3.35822 40 45.0139
      vertex -3.35822 37 46.9861
      vertex -3.35822 37 45.0139
    endloop
  endfacet
  facet normal 0.841254 -0 0.54064
    outer loop
      vertex -3.35822 37 45.0139
      vertex -2.29201 40 43.3549
      vertex -3.35822 40 45.0139
    endloop
  endfacet
  facet normal 0.841254 0 0.54064
    outer loop
      vertex -2.29201 40 43.3549
      vertex -3.35822 37 45.0139
      vertex -2.29201 37 43.3549
    endloop
  endfacet
  facet normal 0 0 -1
    outer loop
      vertex -0.874999 35 47.5155
      vertex 0.875 37 47.5155
      vertex 0.875 35 47.5155
    endloop
  endfacet
  facet normal -0 0 -1
    outer loop
      vertex 0.875 37 47.5155
      vertex -0.874999 35 47.5155
      vertex -0.874999 37 47.5155
    endloop
  endfacet
  facet normal -0.866025 0 -0.5
    outer loop
      vertex 1.75 35 46
      vertex 0.875 37 47.5155
      vertex 1.75 37 46
    endloop
  endfacet
  facet normal -0.866025 -0 -0.5
    outer loop
      vertex 0.875 37 47.5155
      vertex 1.75 35 46
      vertex 0.875 35 47.5155
    endloop
  endfacet
  facet normal 0.866025 0 -0.5
    outer loop
      vertex -0.874999 35 47.5155
      vertex -1.75 37 46
      vertex -0.874999 37 47.5155
    endloop
  endfacet
  facet normal 0.866025 0 -0.5
    outer loop
      vertex -1.75 37 46
      vertex -0.874999 35 47.5155
      vertex -1.75 35 46
    endloop
  endfacet
  facet normal -0 0 1
    outer loop
      vertex -0.875 37 44.4845
      vertex 0.875 35 44.4845
      vertex 0.875 37 44.4845
    endloop
  endfacet
  facet normal 0 0 1
    outer loop
      vertex 0.875 35 44.4845
      vertex -0.875 37 44.4845
      vertex -0.875 35 44.4845
    endloop
  endfacet
  facet normal -0.866025 0 0.5
    outer loop
      vertex 0.875 35 44.4845
      vertex 1.75 37 46
      vertex 0.875 37 44.4845
    endloop
  endfacet
  facet normal -0.866025 0 0.5
    outer loop
      vertex 1.75 37 46
      vertex 0.875 35 44.4845
      vertex 1.75 35 46
    endloop
  endfacet
  facet normal 0.866025 -0 0.5
    outer loop
      vertex -1.75 35 46
      vertex -0.875 37 44.4845
      vertex -1.75 37 46
    endloop
  endfacet
  facet normal 0.866025 0 0.5
    outer loop
      vertex -0.875 37 44.4845
      vertex -1.75 35 46
      vertex -0.875 35 44.4845
    endloop
  endfacet
  facet normal 0 0 -1
    outer loop
      vertex -0.874999 35 27.5155
      vertex 0.875 37 27.5155
      vertex 0.875 35 27.5155
    endloop
  endfacet
  facet normal -0 0 -1
    outer loop
      vertex 0.875 37 27.5155
      vertex -0.874999 35 27.5155
      vertex -0.874999 37 27.5155
    endloop
  endfacet
  facet normal -0.866025 0 -0.5
    outer loop
      vertex 1.75 35 26
      vertex 0.875 37 27.5155
      vertex 1.75 37 26
    endloop
  endfacet
  facet normal -0.866025 -0 -0.5
    outer loop
      vertex 0.875 37 27.5155
      vertex 1.75 35 26
      vertex 0.875 35 27.5155
    endloop
  endfacet
  facet normal 0.866025 0 -0.5
    outer loop
      vertex -0.874999 35 27.5155
      vertex -1.75 37 26
      vertex -0.874999 37 27.5155
    endloop
  endfacet
  facet normal 0.866025 0 -0.5
    outer loop
      vertex -1.75 37 26
      vertex -0.874999 35 27.5155
      vertex -1.75 35 26
    endloop
  endfacet
  facet normal -0 0 1
    outer loop
      vertex -0.875 37 24.4845
      vertex 0.875 35 24.4845
      vertex 0.875 37 24.4845
    endloop
  endfacet
  facet normal 0 0 1
    outer loop
      vertex 0.875 35 24.4845
      vertex -0.875 37 24.4845
      vertex -0.875 35 24.4845
    endloop
  endfacet
  facet normal -0.866025 0 0.5
    outer loop
      vertex 0.875 35 24.4845
      vertex 1.75 37 26
      vertex 0.875 37 24.4845
    endloop
  endfacet
  facet normal -0.866025 0 0.5
    outer loop
      vertex 1.75 37 26
      vertex 0.875 35 24.4845
      vertex 1.75 35 26
    endloop
  endfacet
  facet normal 0.866025 -0 0.5
    outer loop
      vertex -1.75 35 26
      vertex -0.875 37 24.4845
      vertex -1.75 37 26
    endloop
  endfacet
  facet normal 0.866025 0 0.5
    outer loop
      vertex -0.875 37 24.4845
      vertex -1.75 35 26
      vertex -0.875 35 24.4845
    endloop
  endfacet
  facet normal -0.654861 0 -0.755749
    outer loop
      vertex 1.45395 37 29.1837
      vertex 2.94439 40 27.8922
      vertex 2.94439 37 27.8922
    endloop
  endfacet
  facet normal -0.654861 0 -0.755749
    outer loop
      vertex 2.94439 40 27.8922
      vertex 1.45395 37 29.1837
      vertex 1.45395 40 29.1837
    endloop
  endfacet
  facet normal -0.959493 0 -0.281733
    outer loop
      vertex 3.5 37 26
      vertex 2.94439 40 27.8922
      vertex 3.5 40 26
    endloop
  endfacet
  facet normal -0.959493 -0 -0.281733
    outer loop
      vertex 2.94439 40 27.8922
      vertex 3.5 37 26
      vertex 2.94439 37 27.8922
    endloop
  endfacet
  facet normal 0.415414 0 0.909632
    outer loop
      vertex -2.29201 40 23.3549
      vertex -0.498101 37 22.5356
      vertex -0.498101 40 22.5356
    endloop
  endfacet
  facet normal 0.415414 0 0.909632
    outer loop
      vertex -0.498101 37 22.5356
      vertex -2.29201 40 23.3549
      vertex -2.29201 37 23.3549
    endloop
  endfacet
  facet normal 0.841254 0 -0.540641
    outer loop
      vertex -2.29201 37 28.6451
      vertex -3.35822 40 26.9861
      vertex -2.29201 40 28.6451
    endloop
  endfacet
  facet normal 0.841254 0 -0.540641
    outer loop
      vertex -3.35822 40 26.9861
      vertex -2.29201 37 28.6451
      vertex -3.35822 37 26.9861
    endloop
  endfacet
  facet normal 0.415415 0 -0.909632
    outer loop
      vertex -2.29201 37 28.6451
      vertex -0.498101 40 29.4644
      vertex -0.498101 37 29.4644
    endloop
  endfacet
  facet normal 0.415415 0 -0.909632
    outer loop
      vertex -0.498101 40 29.4644
      vertex -2.29201 37 28.6451
      vertex -2.29201 40 28.6451
    endloop
  endfacet
  facet normal -0.142315 0 0.989821
    outer loop
      vertex -0.498101 40 22.5356
      vertex 1.45395 37 22.8163
      vertex 1.45395 40 22.8163
    endloop
  endfacet
  facet normal -0.142315 0 0.989821
    outer loop
      vertex 1.45395 37 22.8163
      vertex -0.498101 40 22.5356
      vertex -0.498101 37 22.5356
    endloop
  endfacet
  facet normal -0.654861 0 0.755749
    outer loop
      vertex 1.45395 40 22.8163
      vertex 2.94439 37 24.1078
      vertex 2.94439 40 24.1078
    endloop
  endfacet
  facet normal -0.654861 0 0.755749
    outer loop
      vertex 2.94439 37 24.1078
      vertex 1.45395 40 22.8163
      vertex 1.45395 37 22.8163
    endloop
  endfacet
  facet normal -0.959493 0 0.281733
    outer loop
      vertex 2.94439 37 24.1078
      vertex 3.5 40 26
      vertex 2.94439 40 24.1078
    endloop
  endfacet
  facet normal -0.959493 0 0.281733
    outer loop
      vertex 3.5 40 26
      vertex 2.94439 37 24.1078
      vertex 3.5 37 26
    endloop
  endfacet
  facet normal 0.841254 -0 0.540641
    outer loop
      vertex -3.35822 37 25.0139
      vertex -2.29201 40 23.3549
      vertex -3.35822 40 25.0139
    endloop
  endfacet
  facet normal 0.841254 0 0.540641
    outer loop
      vertex -2.29201 40 23.3549
      vertex -3.35822 37 25.0139
      vertex -2.29201 37 23.3549
    endloop
  endfacet
  facet normal -0.142315 0 -0.989821
    outer loop
      vertex -0.498101 37 29.4644
      vertex 1.45395 40 29.1837
      vertex 1.45395 37 29.1837
    endloop
  endfacet
  facet normal -0.142315 0 -0.989821
    outer loop
      vertex 1.45395 40 29.1837
      vertex -0.498101 37 29.4644
      vertex -0.498101 40 29.4644
    endloop
  endfacet
  facet normal 0 1 0
    outer loop
      vertex 1.75 37 26
      vertex 2.94439 37 27.8922
      vertex 3.5 37 26
    endloop
  endfacet
  facet normal 0 1 0
    outer loop
      vertex 2.94439 37 27.8922
      vertex 1.75 37 26
      vertex 0.875 37 27.5155
    endloop
  endfacet
  facet normal 0 1 -0
    outer loop
      vertex 2.94439 37 24.1078
      vertex 1.75 37 26
      vertex 3.5 37 26
    endloop
  endfacet
  facet normal 0 1 -0
    outer loop
      vertex 1.45395 37 22.8163
      vertex 0.875 37 24.4845
      vertex 2.94439 37 24.1078
    endloop
  endfacet
  facet normal 0 1 0
    outer loop
      vertex 1.75 37 26
      vertex 2.94439 37 24.1078
      vertex 0.875 37 24.4845
    endloop
  endfacet
  facet normal 0 1 -0
    outer loop
      vertex 0.875 37 27.5155
      vertex -0.498101 37 29.4644
      vertex 1.45395 37 29.1837
    endloop
  endfacet
  facet normal 0 1 0
    outer loop
      vertex 0.875 37 27.5155
      vertex 1.45395 37 29.1837
      vertex 2.94439 37 27.8922
    endloop
  endfacet
  facet normal 0 1 0
    outer loop
      vertex -0.498101 37 29.4644
      vertex 0.875 37 27.5155
      vertex -0.874999 37 27.5155
    endloop
  endfacet
  facet normal 0 1 0
    outer loop
      vertex -0.498101 37 29.4644
      vertex -0.874999 37 27.5155
      vertex -2.29201 37 28.6451
    endloop
  endfacet
  facet normal 0 1 0
    outer loop
      vertex -0.874999 37 27.5155
      vertex -3.35822 37 26.9861
      vertex -2.29201 37 28.6451
    endloop
  endfacet
  facet normal 0 1 -0
    outer loop
      vertex -1.75 37 26
      vertex -3.35822 37 26.9861
      vertex -0.874999 37 27.5155
    endloop
  endfacet
  facet normal 0 1 0
    outer loop
      vertex -1.75 37 26
      vertex -3.35822 37 25.0139
      vertex -3.35822 37 26.9861
    endloop
  endfacet
  facet normal 0 1 0
    outer loop
      vertex -0.875 37 24.4845
      vertex -3.35822 37 25.0139
      vertex -1.75 37 26
    endloop
  endfacet
  facet normal 0 1 0
    outer loop
      vertex -0.875 37 24.4845
      vertex -2.29201 37 23.3549
      vertex -3.35822 37 25.0139
    endloop
  endfacet
  facet normal 0 1 0
    outer loop
      vertex -0.498101 37 22.5356
      vertex 0.875 37 24.4845
      vertex 1.45395 37 22.8163
    endloop
  endfacet
  facet normal 0 1 0
    outer loop
      vertex 0.875 37 24.4845
      vertex -0.498101 37 22.5356
      vertex -0.875 37 24.4845
    endloop
  endfacet
  facet normal 0 1 0
    outer loop
      vertex -0.875 37 24.4845
      vertex -0.498101 37 22.5356
      vertex -2.29201 37 23.3549
    endloop
  endfacet
  facet normal 1 -0 0
    outer loop
      vertex -3.35822 37 26.9861
      vertex -3.35822 40 25.0139
      vertex -3.35822 40 26.9861
    endloop
  endfacet
  facet normal 1 0 0
    outer loop
      vertex -3.35822 40 25.0139
      vertex -3.35822 37 26.9861
      vertex -3.35822 37 25.0139
    endloop
  endfacet
  facet normal 0 1 0
    outer loop
      vertex 26 40 52
      vertex -0.498101 40 49.4644
      vertex -26 40 52
    endloop
  endfacet
  facet normal 0 1 0
    outer loop
      vertex 26 40 52
      vertex 1.45395 40 49.1837
      vertex -0.498101 40 49.4644
    endloop
  endfacet
  facet normal 0 1 0
    outer loop
      vertex 26 40 52
      vertex 2.94439 40 47.8922
      vertex 1.45395 40 49.1837
    endloop
  endfacet
  facet normal 0 1 0
    outer loop
      vertex 26 40 52
      vertex 3.5 40 46
      vertex 2.94439 40 47.8922
    endloop
  endfacet
  facet normal 0 1 0
    outer loop
      vertex 26 40 52
      vertex 2.94439 40 44.1078
      vertex 3.5 40 46
    endloop
  endfacet
  facet normal 0 1 0
    outer loop
      vertex 2.94439 40 27.8922
      vertex 2.94439 40 44.1078
      vertex 26 40 52
    endloop
  endfacet
  facet normal 0 1 0
    outer loop
      vertex 1.45395 40 42.8163
      vertex -0.498101 40 29.4644
      vertex -0.498101 40 42.5356
    endloop
  endfacet
  facet normal 0 1 0
    outer loop
      vertex 2.94439 40 44.1078
      vertex 2.94439 40 27.8922
      vertex 1.45395 40 42.8163
    endloop
  endfacet
  facet normal 0 1 0
    outer loop
      vertex 1.45395 40 42.8163
      vertex 1.45395 40 29.1837
      vertex -0.498101 40 29.4644
    endloop
  endfacet
  facet normal 0 1 0
    outer loop
      vertex 1.45395 40 42.8163
      vertex 2.94439 40 27.8922
      vertex 1.45395 40 29.1837
    endloop
  endfacet
  facet normal 0 1 0
    outer loop
      vertex 26 40 52
      vertex 3.5 40 26
      vertex 2.94439 40 27.8922
    endloop
  endfacet
  facet normal 0 1 -0
    outer loop
      vertex 26 40 5
      vertex 3.5 40 26
      vertex 26 40 52
    endloop
  endfacet
  facet normal 0 1 0
    outer loop
      vertex 1.45395 40 22.8163
      vertex 26 40 5
      vertex -0.498101 40 22.5356
    endloop
  endfacet
  facet normal 0 1 0
    outer loop
      vertex 2.94439 40 24.1078
      vertex 26 40 5
      vertex 1.45395 40 22.8163
    endloop
  endfacet
  facet normal 0 1 0
    outer loop
      vertex 3.5 40 26
      vertex 26 40 5
      vertex 2.94439 40 24.1078
    endloop
  endfacet
  facet normal 0 1 -0
    outer loop
      vertex -2.29201 40 48.6451
      vertex -26 40 52
      vertex -0.498101 40 49.4644
    endloop
  endfacet
  facet normal 0 1 -0
    outer loop
      vertex -3.35822 40 46.9861
      vertex -26 40 52
      vertex -2.29201 40 48.6451
    endloop
  endfacet
  facet normal 0 1 -0
    outer loop
      vertex -3.35822 40 45.0139
      vertex -26 40 52
      vertex -3.35822 40 46.9861
    endloop
  endfacet
  facet normal 0 1 0
    outer loop
      vertex -3.35822 40 26.9861
      vertex -3.35822 40 45.0139
      vertex -2.29201 40 43.3549
    endloop
  endfacet
  facet normal 0 1 0
    outer loop
      vertex -2.29201 40 28.6451
      vertex -2.29201 40 43.3549
      vertex -0.498101 40 42.5356
    endloop
  endfacet
  facet normal 0 1 0
    outer loop
      vertex -2.29201 40 28.6451
      vertex -0.498101 40 42.5356
      vertex -0.498101 40 29.4644
    endloop
  endfacet
  facet normal 0 1 0
    outer loop
      vertex -3.35822 40 26.9861
      vertex -2.29201 40 43.3549
      vertex -2.29201 40 28.6451
    endloop
  endfacet
  facet normal 0 1 0
    outer loop
      vertex -3.35822 40 45.0139
      vertex -3.35822 40 26.9861
      vertex -26 40 52
    endloop
  endfacet
  facet normal 0 1 0
    outer loop
      vertex -26 40 5
      vertex -3.35822 40 26.9861
      vertex -3.35822 40 25.0139
    endloop
  endfacet
  facet normal 0 1 0
    outer loop
      vertex -26 40 5
      vertex -3.35822 40 25.0139
      vertex -2.29201 40 23.3549
    endloop
  endfacet
  facet normal 0 1 0
    outer loop
      vertex -26 40 5
      vertex -0.498101 40 22.5356
      vertex 26 40 5
    endloop
  endfacet
  facet normal 0 1 0
    outer loop
      vertex -3.35822 40 26.9861
      vertex -26 40 5
      vertex -26 40 52
    endloop
  endfacet
  facet normal 0 1 0
    outer loop
      vertex -0.498101 40 22.5356
      vertex -26 40 5
      vertex -2.29201 40 23.3549
    endloop
  endfacet
  facet normal -1 0 0
    outer loop
      vertex -26 35 5
      vertex -26 40 52
      vertex -26 40 5
    endloop
  endfacet
  facet normal -1 -0 0
    outer loop
      vertex -26 40 52
      vertex -26 35 5
      vertex -26 35 52
    endloop
  endfacet
  facet normal -0 0 1
    outer loop
      vertex -26 40 52
      vertex 26 35 52
      vertex 26 40 52
    endloop
  endfacet
  facet normal 0 0 1
    outer loop
      vertex 26 35 52
      vertex -26 40 52
      vertex -26 35 52
    endloop
  endfacet
  facet normal 0 -1 0
    outer loop
      vertex 23 35 5
      vertex 0.875 35 24.4845
      vertex -23 35 5
    endloop
  endfacet
  facet normal 0 -1 0
    outer loop
      vertex 0.875 35 24.4845
      vertex 23 35 5
      vertex 23 35 13
    endloop
  endfacet
  facet normal 0 -1 0
    outer loop
      vertex -26 35 52
      vertex -0.874999 35 47.5155
      vertex 26 35 52
    endloop
  endfacet
  facet normal 0 -1 0
    outer loop
      vertex -26 35 52
      vertex -1.75 35 46
      vertex -0.874999 35 47.5155
    endloop
  endfacet
  facet normal 0 -1 0
    outer loop
      vertex -26 35 52
      vertex -0.875 35 44.4845
      vertex -1.75 35 46
    endloop
  endfacet
  facet normal 0 -1 0
    outer loop
      vertex -0.875 35 44.4845
      vertex -0.874999 35 27.5155
      vertex 0.875 35 44.4845
    endloop
  endfacet
  facet normal 0 -1 0
    outer loop
      vertex -26 35 52
      vertex -0.874999 35 27.5155
      vertex -0.875 35 44.4845
    endloop
  endfacet
  facet normal 0 -1 0
    outer loop
      vertex -26 35 52
      vertex -1.75 35 26
      vertex -0.874999 35 27.5155
    endloop
  endfacet
  facet normal 0 -1 0
    outer loop
      vertex -23 35 13
      vertex -1.75 35 26
      vertex -26 35 52
    endloop
  endfacet
  facet normal 0 -1 -0
    outer loop
      vertex -1.75 35 26
      vertex -23 35 13
      vertex -0.875 35 24.4845
    endloop
  endfacet
  facet normal 0 -1 0
    outer loop
      vertex -23 35 13
      vertex -26 35 52
      vertex -26 35 13
    endloop
  endfacet
  facet normal 0 -1 0
    outer loop
      vertex 0.875 35 47.5155
      vertex 26 35 52
      vertex -0.874999 35 47.5155
    endloop
  endfacet
  facet normal 0 -1 0
    outer loop
      vertex 1.75 35 46
      vertex 26 35 52
      vertex 0.875 35 47.5155
    endloop
  endfacet
  facet normal 0 -1 0
    outer loop
      vertex 0.875 35 44.4845
      vertex 26 35 52
      vertex 1.75 35 46
    endloop
  endfacet
  facet normal 0 -1 0
    outer loop
      vertex 0.875 35 27.5155
      vertex 0.875 35 44.4845
      vertex -0.874999 35 27.5155
    endloop
  endfacet
  facet normal 0 -1 0
    outer loop
      vertex 0.875 35 44.4845
      vertex 0.875 35 27.5155
      vertex 26 35 52
    endloop
  endfacet
  facet normal 0 -1 0
    outer loop
      vertex 1.75 35 26
      vertex 26 35 52
      vertex 0.875 35 27.5155
    endloop
  endfacet
  facet normal 0 -1 0
    outer loop
      vertex 23 35 13
      vertex 1.75 35 26
      vertex 0.875 35 24.4845
    endloop
  endfacet
  facet normal 0 -1 0
    outer loop
      vertex -23 35 5
      vertex -0.875 35 24.4845
      vertex -23 35 13
    endloop
  endfacet
  facet normal 0 -1 -0
    outer loop
      vertex -0.875 35 24.4845
      vertex -23 35 5
      vertex 0.875 35 24.4845
    endloop
  endfacet
  facet normal 0 -1 0
    outer loop
      vertex 1.75 35 26
      vertex 23 35 13
      vertex 26 35 52
    endloop
  endfacet
  facet normal 0 -1 -0
    outer loop
      vertex 26 35 52
      vertex 23 35 13
      vertex 26 35 13
    endloop
  endfacet
  facet normal 0 0 0
    outer loop
      vertex -26 35 13
      vertex -26 35 52
      vertex -26 35 5
    endloop
  endfacet
  facet normal 0 0 0
    outer loop
      vertex 26 35 13
      vertex 26 35 5
      vertex 26 35 52
    endloop
  endfacet
  facet normal 1 -0 0
    outer loop
      vertex 26 35 52
      vertex 26 40 5
      vertex 26 40 52
    endloop
  endfacet
  facet normal 1 0 0
    outer loop
      vertex 26 40 5
      vertex 26 35 52
      vertex 26 35 5
    endloop
  endfacet
  facet normal 1 0 0
    outer loop
      vertex 26 35 13
      vertex 26 27 5
      vertex 26 35 5
    endloop
  endfacet
  facet normal 0 -0.707107 0.707107
    outer loop
      vertex 23 35 13
      vertex 26 27 5
      vertex 26 35 13
    endloop
  endfacet
  facet normal 0 -0.707107 0.707107
    outer loop
      vertex 26 27 5
      vertex 23 35 13
      vertex 23 27 5
    endloop
  endfacet
  facet normal -1 0 0
    outer loop
      vertex 23 35 5
      vertex 23 27 5
      vertex 23 35 13
    endloop
  endfacet
  facet normal 1 0 0
    outer loop
      vertex -23 35 13
      vertex -23 27 5
      vertex -23 35 5
    endloop
  endfacet
  facet normal 0 -0.707107 0.707107
    outer loop
      vertex -26 35 13
      vertex -23 27 5
      vertex -23 35 13
    endloop
  endfacet
  facet normal 0 -0.707107 0.707107
    outer loop
      vertex -23 27 5
      vertex -26 35 13
      vertex -26 27 5
    endloop
  endfacet
  facet normal -1 0 0
    outer loop
      vertex -26 35 5
      vertex -26 27 5
      vertex -26 35 13
    endloop
  endfacet
endsolid OpenSCAD_Model
